<svg id="SvgjsSvg1006" width="526" height="360" xmlns="http://www.w3.org/2000/svg" version="1.1" xmlns:xlink="http://www.w3.org/1999/xlink" xmlns:svgjs="http://svgjs.com/svgjs"><defs id="SvgjsDefs1007"><marker id="SvgjsMarker1018" markerWidth="16" markerHeight="12" refX="16" refY="6" viewBox="0 0 16 12" orient="auto" markerUnits="userSpaceOnUse"><path id="SvgjsPath1019" d="M0,2 L14,6 L0,11 L0,2" fill="#323232" stroke="#323232" stroke-width="2"></path></marker><marker id="SvgjsMarker1022" markerWidth="16" markerHeight="12" refX="16" refY="6" viewBox="0 0 16 12" orient="auto" markerUnits="userSpaceOnUse"><path id="SvgjsPath1023" d="M0,2 L14,6 L0,11 L0,2" fill="#323232" stroke="#323232" stroke-width="2"></path></marker></defs><g id="SvgjsG1008" transform="translate(31,25)"><path id="SvgjsPath1009" d="M 0 0L 470 0L 470 313.5L 0 313.5Z" stroke="#323232" stroke-width="1" fill-opacity="1" fill="#ffffff"></path><g id="SvgjsG1010"><text id="SvgjsText1011" font-family="微软雅黑" text-anchor="middle" font-size="13px" width="0" fill="#323232" font-weight="400" align="middle" anchor="middle" family="微软雅黑" size="13px" weight="400" font-style="" y="146.8" transform="rotate(0)"></text></g></g><g id="SvgjsG1012" transform="translate(225.5,112.5)"><path id="SvgjsPath1013" d="M 0 35C 0 -11.666666666666666 70 -11.666666666666666 70 35C 70 81.66666666666667 0 81.66666666666667 0 35Z" stroke="none" fill-opacity="1" fill="#cfcfcf"></path><g id="SvgjsG1014"><text id="SvgjsText1015" font-family="微软雅黑" text-anchor="middle" font-size="13px" width="0" fill="#323232" font-weight="400" align="middle" anchor="middle" family="微软雅黑" size="13px" weight="400" font-style="" y="25.05" transform="rotate(0)"></text></g></g><g id="SvgjsG1016"><path id="SvgjsPath1017" d="M126 299L126 46" stroke="#323232" stroke-width="2" fill="none" marker-end="url(#SvgjsMarker1018)"></path></g><g id="SvgjsG1020"><path id="SvgjsPath1021" d="M126 297L464 297" stroke="#323232" stroke-width="2" fill="none" marker-end="url(#SvgjsMarker1022)"></path></g><g id="SvgjsG1024"><path id="SvgjsPath1025" d="M126 104L455 104" stroke-dasharray="8,5" stroke="#323232" stroke-width="1" fill="none"></path></g><g id="SvgjsG1026" transform="translate(215,302)"><path id="SvgjsPath1027" d="M 0 0L 125 0L 125 33L 0 33Z" stroke="none" fill="none"></path><g id="SvgjsG1028"><text id="SvgjsText1029" font-family="Arial" text-anchor="middle" font-size="13px" width="52" fill="#323232" font-weight="400" align="middle" anchor="middle" family="Arial" size="13px" weight="400" font-style="" y="6.55" transform="rotate(0)"><tspan id="SvgjsTspan1030" dy="16" x="62.5"><tspan id="SvgjsTspan1031" style="text-decoration:;">输入负载</tspan></tspan></text></g></g><g id="SvgjsG1032" transform="translate(31,167.5)"><path id="SvgjsPath1033" d="M 0 0L 83 0L 83 36.5L 0 36.5Z" stroke="none" fill="none"></path><g id="SvgjsG1034"><text id="SvgjsText1035" font-family="Arial" text-anchor="end" font-size="13px" width="65" fill="#323232" font-weight="400" align="middle" anchor="end" family="Arial" size="13px" weight="400" font-style="" y="8.3" transform="rotate(0)"><tspan id="SvgjsTspan1036" dy="16" x="83"><tspan id="SvgjsTspan1037" style="text-decoration:;">实际吞吐量</tspan></tspan></text></g></g><g id="SvgjsG1038"><path id="SvgjsPath1039" d="M232.11688311688312 172.95454545454547C 301.1168831168831 118.95454545454544 350.1168831168831 139.95454545454547 365.1168831168831 254.95454545454544" stroke="#ff0000" stroke-width="2" fill="none"></path></g><g id="SvgjsG1040"><path id="SvgjsPath1041" d="M228.78571428571428 176.5C 305.7857142857143 108.5 337.7857142857143 112.5 428.7857142857143 105.5" stroke="#00994d" stroke-width="2" fill="none"></path></g><g id="SvgjsG1042" transform="translate(197.75,178.75)"><path id="SvgjsPath1043" d="M 0 0L 125 0L 125 33L 0 33Z" stroke="none" fill="none"></path><g id="SvgjsG1044"><text id="SvgjsText1045" font-family="Arial" text-anchor="middle" font-size="13px" width="52" fill="#323232" font-weight="400" align="middle" anchor="middle" family="Arial" size="13px" weight="400" font-style="" y="6.55" transform="rotate(0)"><tspan id="SvgjsTspan1046" dy="16" x="62.5"><tspan id="SvgjsTspan1047" style="text-decoration:;">开始拥塞</tspan></tspan></text></g></g><g id="SvgjsG1048" transform="translate(335.5,201.5)"><path id="SvgjsPath1049" d="M 0 0L 125 0L 125 33L 0 33Z" stroke="none" fill="none"></path><g id="SvgjsG1050"><text id="SvgjsText1051" font-family="Arial" text-anchor="middle" font-size="13px" width="52" fill="#323232" font-weight="400" align="middle" anchor="middle" family="Arial" size="13px" weight="400" font-style="" y="6.55" transform="rotate(0)"><tspan id="SvgjsTspan1052" dy="16" x="62.5"><tspan id="SvgjsTspan1053" style="text-decoration:;">拥塞崩溃</tspan></tspan></text></g></g><g id="SvgjsG1054" transform="translate(325,112.5)"><path id="SvgjsPath1055" d="M 0 0L 125 0L 125 33L 0 33Z" stroke="none" fill="none"></path><g id="SvgjsG1056"><text id="SvgjsText1057" font-family="Arial" text-anchor="middle" font-size="13px" width="52" fill="#323232" font-weight="400" align="middle" anchor="middle" family="Arial" size="13px" weight="400" font-style="" y="6.55" transform="rotate(0)"><tspan id="SvgjsTspan1058" dy="16" x="62.5"><tspan id="SvgjsTspan1059" style="text-decoration:;">理想响应</tspan></tspan></text></g></g><g id="SvgjsG1060" transform="translate(117,72.5)"><path id="SvgjsPath1061" d="M 0 0L 125 0L 125 33L 0 33Z" stroke="none" fill="none"></path><g id="SvgjsG1062"><text id="SvgjsText1063" font-family="Arial" text-anchor="middle" font-size="13px" width="52" fill="#323232" font-weight="400" align="middle" anchor="middle" family="Arial" size="13px" weight="400" font-style="" y="6.55" transform="rotate(0)"><tspan id="SvgjsTspan1064" dy="16" x="62.5"><tspan id="SvgjsTspan1065" style="text-decoration:;">网络容量</tspan></tspan></text></g></g><g id="SvgjsG1066"><path id="SvgjsPath1067" d="M125 296L292 104" stroke="#323232" stroke-width="2" fill="none"></path></g><g id="SvgjsG1068" transform="translate(47,55.5)"><path id="SvgjsPath1069" d="M 0 0L 67 0L 67 29.5L 0 29.5Z" stroke="none" fill="none"></path><g id="SvgjsG1070"><text id="SvgjsText1071" font-family="Arial" text-anchor="end" font-size="13px" width="55" fill="#323232" font-weight="400" align="middle" anchor="end" family="Arial" size="13px" weight="400" font-style="" y="4.8" transform="rotate(0)"><tspan id="SvgjsTspan1072" dy="16" x="67"><tspan id="SvgjsTspan1073" style="text-decoration:;">bytes/sec</tspan></tspan></text></g></g><g id="SvgjsG1074" transform="translate(369,302)"><path id="SvgjsPath1075" d="M 0 0L 125 0L 125 33L 0 33Z" stroke="none" fill="none"></path><g id="SvgjsG1076"><text id="SvgjsText1077" font-family="Arial" text-anchor="middle" font-size="13px" width="55" fill="#323232" font-weight="400" align="middle" anchor="middle" family="Arial" size="13px" weight="400" font-style="" y="6.55" transform="rotate(0)"><tspan id="SvgjsTspan1078" dy="16" x="62.5"><tspan id="SvgjsTspan1079" style="text-decoration:;">bytes/sec</tspan></tspan></text></g></g></svg>