<svg id="SvgjsSvg1006" width="812" height="494" xmlns="http://www.w3.org/2000/svg" version="1.1" xmlns:xlink="http://www.w3.org/1999/xlink" xmlns:svgjs="http://svgjs.com/svgjs"><defs id="SvgjsDefs1007"><marker id="SvgjsMarker1058" markerWidth="16" markerHeight="12" refX="16" refY="6" viewBox="0 0 16 12" orient="auto" markerUnits="userSpaceOnUse"><path id="SvgjsPath1059" d="M0,2 L14,6 L0,11 L0,2" fill="#323232" stroke="#323232" stroke-width="2"></path></marker><marker id="SvgjsMarker1066" markerWidth="16" markerHeight="12" refX="16" refY="6" viewBox="0 0 16 12" orient="auto" markerUnits="userSpaceOnUse"><path id="SvgjsPath1067" d="M0,2 L14,6 L0,11 L0,2" fill="#00994d" stroke="#00994d" stroke-width="2"></path></marker><marker id="SvgjsMarker1074" markerWidth="16" markerHeight="12" refX="16" refY="6" viewBox="0 0 16 12" orient="auto" markerUnits="userSpaceOnUse"><path id="SvgjsPath1075" d="M0,2 L14,6 L0,11 L0,2" fill="#000000" stroke="#000000" stroke-width="2"></path></marker><marker id="SvgjsMarker1082" markerWidth="16" markerHeight="12" refX="16" refY="6" viewBox="0 0 16 12" orient="auto" markerUnits="userSpaceOnUse"><path id="SvgjsPath1083" d="M0,2 L14,6 L0,11 L0,2" fill="#009900" stroke="#009900" stroke-width="2"></path></marker><marker id="SvgjsMarker1090" markerWidth="16" markerHeight="12" refX="16" refY="6" viewBox="0 0 16 12" orient="auto" markerUnits="userSpaceOnUse"><path id="SvgjsPath1091" d="M0,2 L14,6 L0,11 L0,2" fill="#000000" stroke="#000000" stroke-width="2"></path></marker><marker id="SvgjsMarker1098" markerWidth="16" markerHeight="12" refX="16" refY="6" viewBox="0 0 16 12" orient="auto" markerUnits="userSpaceOnUse"><path id="SvgjsPath1099" d="M0,2 L14,6 L0,11 L0,2" fill="#009900" stroke="#009900" stroke-width="2"></path></marker><marker id="SvgjsMarker1106" markerWidth="16" markerHeight="12" refX="16" refY="6" viewBox="0 0 16 12" orient="auto" markerUnits="userSpaceOnUse"><path id="SvgjsPath1107" d="M0,2 L14,6 L0,11 L0,2" fill="#000000" stroke="#000000" stroke-width="2"></path></marker><marker id="SvgjsMarker1114" markerWidth="16" markerHeight="12" refX="16" refY="6" viewBox="0 0 16 12" orient="auto" markerUnits="userSpaceOnUse"><path id="SvgjsPath1115" d="M0,2 L14,6 L0,11 L0,2" fill="#009900" stroke="#009900" stroke-width="2"></path></marker><marker id="SvgjsMarker1122" markerWidth="16" markerHeight="12" refX="16" refY="6" viewBox="0 0 16 12" orient="auto" markerUnits="userSpaceOnUse"><path id="SvgjsPath1123" d="M0,2 L14,6 L0,11 L0,2" fill="#323232" stroke="#323232" stroke-width="2"></path></marker><marker id="SvgjsMarker1126" markerWidth="16" markerHeight="12" refX="16" refY="6" viewBox="0 0 16 12" orient="auto" markerUnits="userSpaceOnUse"><path id="SvgjsPath1127" d="M0,2 L14,6 L0,11 L0,2" fill="#323232" stroke="#323232" stroke-width="2"></path></marker></defs><g id="SvgjsG1008" transform="translate(25,211)"><path id="SvgjsPath1009" d="M 0 4Q 0 0 4 0L 119 0Q 123 0 123 4L 123 68Q 123 72 119 72L 4 72Q 0 72 0 68Z" stroke="#323232" stroke-width="2" fill-opacity="1" fill="#ffffff"></path><g id="SvgjsG1010"><text id="SvgjsText1011" font-family="Arial" text-anchor="middle" font-size="13px" width="37" fill="#323232" font-weight="400" align="middle" anchor="middle" family="Arial" size="13px" weight="400" font-style="" y="18.05" transform="rotate(0)"><tspan id="SvgjsTspan1012" dy="16" x="61.5"><tspan id="SvgjsTspan1013" style="text-decoration:;">Jane's</tspan></tspan><tspan id="SvgjsTspan1014" dy="16" x="61.5"><tspan id="SvgjsTspan1015" style="text-decoration:;">Host</tspan></tspan></text></g></g><g id="SvgjsG1016" transform="translate(310,211)"><path id="SvgjsPath1017" d="M 0 4Q 0 0 4 0L 119 0Q 123 0 123 4L 123 68Q 123 72 119 72L 4 72Q 0 72 0 68Z" stroke="#323232" stroke-width="2" fill-opacity="1" fill="#ffffff"></path><g id="SvgjsG1018"><text id="SvgjsText1019" font-family="Arial" text-anchor="middle" font-size="13px" width="72" fill="#323232" font-weight="700" align="middle" anchor="middle" family="Arial" size="13px" weight="700" font-style="" y="10.05" transform="rotate(0)"><tspan id="SvgjsTspan1020" dy="16" x="61.5"><tspan id="SvgjsTspan1021" style="text-decoration:;">Local </tspan></tspan><tspan id="SvgjsTspan1022" dy="16" x="61.5"><tspan id="SvgjsTspan1023" style="text-decoration:;">DNS Server</tspan></tspan><tspan id="SvgjsTspan1024" dy="16" x="61.5"><tspan id="SvgjsTspan1025" style="text-decoration:;">(127.0.0.1)</tspan></tspan></text></g></g><g id="SvgjsG1026" transform="translate(461,25)"><path id="SvgjsPath1027" d="M 0 4Q 0 0 4 0L 154 0Q 158 0 158 4L 158 68Q 158 72 154 72L 4 72Q 0 72 0 68Z" stroke="#323232" stroke-width="2" fill-opacity="1" fill="#ffffff"></path><g id="SvgjsG1028"><text id="SvgjsText1029" font-family="Arial" text-anchor="middle" font-size="13px" width="118" fill="#323232" font-weight="700" align="middle" anchor="middle" family="Arial" size="13px" weight="700" font-style="" y="10.05" transform="rotate(0)"><tspan id="SvgjsTspan1030" dy="16" x="79"><tspan id="SvgjsTspan1031" style="text-decoration:;">Root</tspan></tspan><tspan id="SvgjsTspan1032" dy="16" x="79"><tspan id="SvgjsTspan1033" style="text-decoration:;font-size: inherit;">DNS Server</tspan></tspan><tspan id="SvgjsTspan1034" dy="16" x="79"><tspan id="SvgjsTspan1035" style="text-decoration:;font-size: inherit;">(e.root-servers.net)</tspan></tspan></text></g></g><g id="SvgjsG1036" transform="translate(629,211)"><path id="SvgjsPath1037" d="M 0 4Q 0 0 4 0L 154 0Q 158 0 158 4L 158 68Q 158 72 154 72L 4 72Q 0 72 0 68Z" stroke="#323232" stroke-width="2" fill-opacity="1" fill="#ffffff"></path><g id="SvgjsG1038"><text id="SvgjsText1039" font-family="Arial" text-anchor="middle" font-size="13px" width="121" fill="#323232" font-weight="700" align="middle" anchor="middle" family="Arial" size="13px" weight="700" font-style="" y="10.05" transform="rotate(0)"><tspan id="SvgjsTspan1040" dy="16" x="79"><tspan id="SvgjsTspan1041" style="text-decoration:;">TLD</tspan></tspan><tspan id="SvgjsTspan1042" dy="16" x="79"><tspan id="SvgjsTspan1043" style="text-decoration:;font-size: inherit;">DNS Server</tspan></tspan><tspan id="SvgjsTspan1044" dy="16" x="79"><tspan id="SvgjsTspan1045" style="text-decoration:;font-size: inherit;">(m.gtld-servers.net)</tspan></tspan></text></g></g><g id="SvgjsG1046" transform="translate(461,397)"><path id="SvgjsPath1047" d="M 0 4Q 0 0 4 0L 154 0Q 158 0 158 4L 158 68Q 158 72 154 72L 4 72Q 0 72 0 68Z" stroke="#323232" stroke-width="2" fill-opacity="1" fill="#ffffff"></path><g id="SvgjsG1048"><text id="SvgjsText1049" font-family="Arial" text-anchor="middle" font-size="13px" width="91" fill="#323232" font-weight="700" align="middle" anchor="middle" family="Arial" size="13px" weight="700" font-style="" y="10.05" transform="rotate(0)"><tspan id="SvgjsTspan1050" dy="16" x="79"><tspan id="SvgjsTspan1051" style="text-decoration:;">Authoritative</tspan></tspan><tspan id="SvgjsTspan1052" dy="16" x="79"><tspan id="SvgjsTspan1053" style="text-decoration:;font-size: inherit;">DNS Server</tspan></tspan><tspan id="SvgjsTspan1054" dy="16" x="79"><tspan id="SvgjsTspan1055" style="text-decoration:;font-size: inherit;">(ns4.sina.com)</tspan></tspan></text></g></g><g id="SvgjsG1056"><path id="SvgjsPath1057" d="M148 247C 181 215 281 215 310 247" stroke-dasharray="8,5" stroke="#323232" stroke-width="2" fill="none" marker-end="url(#SvgjsMarker1058)"></path><rect id="SvgjsRect1060" width="43" height="16" x="209" y="215" fill="#ffffff"></rect><text id="SvgjsText1061" font-family="Arial" text-anchor="middle" font-size="13px" width="43" fill="#323232" font-weight="400" align="top" anchor="middle" family="Arial" size="13px" weight="400" font-style="" y="213.05" transform="rotate(0)"><tspan id="SvgjsTspan1062" dy="16" x="230.5"><tspan id="SvgjsTspan1063" style="text-decoration:;">1.query</tspan></tspan></text></g><g id="SvgjsG1064"><path id="SvgjsPath1065" d="M310 247C 288 276 169 283 148 247" stroke-dasharray="8,5" stroke="#00994d" stroke-width="2" fill="none" marker-end="url(#SvgjsMarker1066)"></path><rect id="SvgjsRect1068" width="99" height="16" x="179.125" y="263.375" fill="#ffffff"></rect><text id="SvgjsText1069" font-family="Arial" text-anchor="middle" font-size="13px" width="99" fill="#323232" font-weight="400" align="top" anchor="middle" family="Arial" size="13px" weight="400" font-style="" y="261.425" transform="rotate(0)"><tspan id="SvgjsTspan1070" dy="16" x="228.625"><tspan id="SvgjsTspan1071" style="text-decoration:;">8.home.sina.com</tspan></tspan></text></g><g id="SvgjsG1072"><path id="SvgjsPath1073" d="M433 247C 433 175 488 97 540 97" stroke="#000000" stroke-width="2" fill="none" marker-end="url(#SvgjsMarker1074)"></path><rect id="SvgjsRect1076" width="47" height="16" x="443.5" y="137" fill="#ffffff"></rect><text id="SvgjsText1077" font-family="Arial" text-anchor="middle" font-size="13px" width="47" fill="#323232" font-weight="400" align="top" anchor="middle" family="Arial" size="13px" weight="400" font-style="" y="135.05" transform="rotate(0)"><tspan id="SvgjsTspan1078" dy="16" x="467"><tspan id="SvgjsTspan1079" style="text-decoration:;">2. query</tspan></tspan></text></g><g id="SvgjsG1080"><path id="SvgjsPath1081" d="M540 97L433 247" stroke="#009900" stroke-width="2" fill="none" marker-end="url(#SvgjsMarker1082)"></path><rect id="SvgjsRect1084" width="39" height="16" x="467" y="164" fill="#ffffff"></rect><text id="SvgjsText1085" font-family="Arial" text-anchor="middle" font-size="13px" width="39" fill="#323232" font-weight="400" align="top" anchor="middle" family="Arial" size="13px" weight="400" font-style="" y="162.05" transform="rotate(0)"><tspan id="SvgjsTspan1086" dy="16" x="486.5"><tspan id="SvgjsTspan1087" style="text-decoration:;">3. com</tspan></tspan></text></g><g id="SvgjsG1088"><path id="SvgjsPath1089" d="M433 247C 469 207 612 216 629 247" stroke="#000000" stroke-width="2" fill="none" marker-end="url(#SvgjsMarker1090)"></path><rect id="SvgjsRect1092" width="47" height="16" x="514.625" y="212.375" fill="#ffffff"></rect><text id="SvgjsText1093" font-family="Arial" text-anchor="middle" font-size="13px" width="47" fill="#323232" font-weight="400" align="top" anchor="middle" family="Arial" size="13px" weight="400" font-style="" y="210.425" transform="rotate(0)"><tspan id="SvgjsTspan1094" dy="16" x="538.125"><tspan id="SvgjsTspan1095" style="text-decoration:;">4. query</tspan></tspan></text></g><g id="SvgjsG1096"><path id="SvgjsPath1097" d="M629 247L433 247" stroke="#009900" stroke-width="2" fill="none" marker-end="url(#SvgjsMarker1098)"></path><rect id="SvgjsRect1100" width="66" height="16" x="498" y="239" fill="#ffffff"></rect><text id="SvgjsText1101" font-family="Arial" text-anchor="middle" font-size="13px" width="66" fill="#323232" font-weight="400" align="top" anchor="middle" family="Arial" size="13px" weight="400" font-style="" y="237.05" transform="rotate(0)"><tspan id="SvgjsTspan1102" dy="16" x="531"><tspan id="SvgjsTspan1103" style="text-decoration:;">5. sina.com</tspan></tspan></text></g><g id="SvgjsG1104"><path id="SvgjsPath1105" d="M433 247L540 397" stroke="#000000" stroke-width="2" fill="none" marker-end="url(#SvgjsMarker1106)"></path><rect id="SvgjsRect1108" width="47" height="16" x="463" y="314" fill="#ffffff"></rect><text id="SvgjsText1109" font-family="Arial" text-anchor="middle" font-size="13px" width="47" fill="#323232" font-weight="400" align="top" anchor="middle" family="Arial" size="13px" weight="400" font-style="" y="312.05" transform="rotate(0)"><tspan id="SvgjsTspan1110" dy="16" x="486.5"><tspan id="SvgjsTspan1111" style="text-decoration:;">6. query</tspan></tspan></text></g><g id="SvgjsG1112"><path id="SvgjsPath1113" d="M540 397C 471 397 432 291 433 247" stroke="#009900" stroke-width="2" fill="none" marker-end="url(#SvgjsMarker1114)"></path><rect id="SvgjsRect1116" width="99" height="16" x="410.75" y="330.5" fill="#ffffff"></rect><text id="SvgjsText1117" font-family="Arial" text-anchor="middle" font-size="13px" width="99" fill="#323232" font-weight="400" align="top" anchor="middle" family="Arial" size="13px" weight="400" font-style="" y="328.55" transform="rotate(0)"><tspan id="SvgjsTspan1118" dy="16" x="460.25"><tspan id="SvgjsTspan1119" style="text-decoration:;">7.home.sina.com</tspan></tspan></text></g><g id="SvgjsG1120"><path id="SvgjsPath1121" d="M27 363L102 363" stroke-dasharray="8,5" stroke="#323232" stroke-width="2" fill="none" marker-end="url(#SvgjsMarker1122)"></path></g><g id="SvgjsG1124"><path id="SvgjsPath1125" d="M25 401L100 401" stroke="#323232" stroke-width="2" fill="none" marker-end="url(#SvgjsMarker1126)"></path></g><g id="SvgjsG1128" transform="translate(103,344)"><path id="SvgjsPath1129" d="M 0 0L 103 0L 103 40L 0 40Z" stroke="none" fill="none"></path><g id="SvgjsG1130"><text id="SvgjsText1131" font-family="Arial" text-anchor="middle" font-size="13px" width="52" fill="#323232" font-weight="400" align="middle" anchor="middle" family="Arial" size="13px" weight="400" font-style="" y="10.05" transform="rotate(0)"><tspan id="SvgjsTspan1132" dy="16" x="51.5"><tspan id="SvgjsTspan1133" style="text-decoration:;">递归查询</tspan></tspan></text></g></g><g id="SvgjsG1134" transform="translate(103,384)"><path id="SvgjsPath1135" d="M 0 0L 103 0L 103 40L 0 40Z" stroke="none" fill="none"></path><g id="SvgjsG1136"><text id="SvgjsText1137" font-family="Arial" text-anchor="middle" font-size="13px" width="52" fill="#323232" font-weight="400" align="middle" anchor="middle" family="Arial" size="13px" weight="400" font-style="" y="10.05" transform="rotate(0)"><tspan id="SvgjsTspan1138" dy="16" x="51.5"><tspan id="SvgjsTspan1139" style="text-decoration:;">迭代查询</tspan></tspan></text></g></g></svg>