<svg id="SvgjsSvg1006" width="1026" height="677.0124969482422" xmlns="http://www.w3.org/2000/svg" version="1.1" xmlns:xlink="http://www.w3.org/1999/xlink" xmlns:svgjs="http://svgjs.com/svgjs"><defs id="SvgjsDefs1007"><marker id="SvgjsMarker1026" markerWidth="16" markerHeight="12" refX="16" refY="6" viewBox="0 0 16 12" orient="auto" markerUnits="userSpaceOnUse"><path id="SvgjsPath1027" d="M0,2 L14,6 L0,11 L0,2" fill="#323232" stroke="#323232" stroke-width="2"></path></marker><marker id="SvgjsMarker1030" markerWidth="16" markerHeight="12" refX="16" refY="6" viewBox="0 0 16 12" orient="auto" markerUnits="userSpaceOnUse"><path id="SvgjsPath1031" d="M0,2 L14,6 L0,11 L0,2" fill="#323232" stroke="#323232" stroke-width="2"></path></marker><marker id="SvgjsMarker1046" markerWidth="16" markerHeight="12" refX="16" refY="6" viewBox="0 0 16 12" orient="auto" markerUnits="userSpaceOnUse"><path id="SvgjsPath1047" d="M0,2 L14,6 L0,11 L0,2" fill="#323232" stroke="#323232" stroke-width="2"></path></marker><marker id="SvgjsMarker1066" markerWidth="16" markerHeight="12" refX="16" refY="6" viewBox="0 0 16 12" orient="auto" markerUnits="userSpaceOnUse"><path id="SvgjsPath1067" d="M0,2 L14,6 L0,11 L0,2" fill="#323232" stroke="#323232" stroke-width="2"></path></marker><marker id="SvgjsMarker1084" markerWidth="16" markerHeight="12" refX="16" refY="6" viewBox="0 0 16 12" orient="auto" markerUnits="userSpaceOnUse"><path id="SvgjsPath1085" d="M0,2 L14,6 L0,11 L0,2" fill="#323232" stroke="#323232" stroke-width="2"></path></marker><marker id="SvgjsMarker1088" markerWidth="16" markerHeight="12" refX="16" refY="6" viewBox="0 0 16 12" orient="auto" markerUnits="userSpaceOnUse"><path id="SvgjsPath1089" d="M0,2 L14,6 L0,11 L0,2" fill="#323232" stroke="#323232" stroke-width="2"></path></marker><marker id="SvgjsMarker1104" markerWidth="16" markerHeight="12" refX="16" refY="6" viewBox="0 0 16 12" orient="auto" markerUnits="userSpaceOnUse"><path id="SvgjsPath1105" d="M0,2 L14,6 L0,11 L0,2" fill="#323232" stroke="#323232" stroke-width="2"></path></marker><marker id="SvgjsMarker1168" markerWidth="16" markerHeight="12" refX="16" refY="6" viewBox="0 0 16 12" orient="auto" markerUnits="userSpaceOnUse"><path id="SvgjsPath1169" d="M0,2 L14,6 L0,11 L0,2" fill="#323232" stroke="#323232" stroke-width="2"></path></marker><marker id="SvgjsMarker1186" markerWidth="16" markerHeight="12" refX="16" refY="6" viewBox="0 0 16 12" orient="auto" markerUnits="userSpaceOnUse"><path id="SvgjsPath1187" d="M0,2 L14,6 L0,11 L0,2" fill="#323232" stroke="#323232" stroke-width="2"></path></marker><marker id="SvgjsMarker1204" markerWidth="16" markerHeight="12" refX="16" refY="6" viewBox="0 0 16 12" orient="auto" markerUnits="userSpaceOnUse"><path id="SvgjsPath1205" d="M0,2 L14,6 L0,11 L0,2" fill="#323232" stroke="#323232" stroke-width="2"></path></marker><marker id="SvgjsMarker1218" markerWidth="16" markerHeight="12" refX="16" refY="6" viewBox="0 0 16 12" orient="auto" markerUnits="userSpaceOnUse"><path id="SvgjsPath1219" d="M0,2 L14,6 L0,11 L0,2" fill="#323232" stroke="#323232" stroke-width="2"></path></marker></defs><g id="SvgjsG1008" transform="translate(25.000015258789062,25.012496948242188)"><path id="SvgjsPath1009" d="M 0 0L 975.9999847412109 0L 975.9999847412109 627L 0 627Z" stroke="#323232" stroke-width="1" fill-opacity="1" fill="#ffffff"></path><g id="SvgjsG1010"><text id="SvgjsText1011" font-family="Arial" text-anchor="middle" font-size="13px" width="0" fill="#323232" font-weight="400" align="middle" anchor="middle" family="Arial" size="13px" weight="400" font-style="" y="303.55" transform="rotate(0)"></text></g></g><g id="SvgjsG1012" transform="translate(215.60000610351562,182.0124969482422)"><path id="SvgjsPath1013" d="M 0 20C 0 -6.666666666666667 40 -6.666666666666667 40 20C 40 46.666666666666664 0 46.666666666666664 0 20Z" stroke="none" fill-opacity="1" fill="#323232"></path><g id="SvgjsG1014"><text id="SvgjsText1015" font-family="Arial" text-anchor="middle" font-size="13px" width="0" fill="#323232" font-weight="400" align="middle" anchor="middle" family="Arial" size="13px" weight="400" font-style="" y="45.05" transform="rotate(0)"></text></g></g><g id="SvgjsG1016" transform="translate(322.00001525878906,167.0124969482422)"><path id="SvgjsPath1017" d="M 0 18Q 0 0 18 0L 95 0Q 113 0 113 18L 113 52Q 113 70 95 70L 18 70Q 0 70 0 52L 0 18Z" stroke="#323232" stroke-width="2" fill-opacity="1" fill="#ffffff"></path><g id="SvgjsG1018"><text id="SvgjsText1019" font-family="Arial" text-anchor="middle" font-size="13px" width="78" fill="#323232" font-weight="400" align="middle" anchor="middle" family="Arial" size="13px" weight="400" font-style="" y="17.05" transform="rotate(0)"><tspan id="SvgjsTspan1020" dy="16" x="56.5"><tspan id="SvgjsTspan1021" style="text-decoration:;">Wait for call 0 </tspan></tspan><tspan id="SvgjsTspan1022" dy="16" x="56.5"><tspan id="SvgjsTspan1023" style="text-decoration:;">from above</tspan></tspan></text></g></g><g id="SvgjsG1024"><path id="SvgjsPath1025" d="M255.60000610351562 202.0124969482422L322.00001525878906 202.0124969482422" stroke="#323232" stroke-width="2" fill="none" marker-end="url(#SvgjsMarker1026)"></path></g><g id="SvgjsG1028"><path id="SvgjsPath1029" d="M378.50001525878906 167.0124969482422C 378.50001525878906 65.97250061035156 631.1000061035156 65.97250061035156 631.1000061035156 167.0124969482422" stroke="#323232" stroke-width="2" fill="none" marker-end="url(#SvgjsMarker1030)"></path></g><g id="SvgjsG1032" transform="translate(425.00001525878906,612.0124969482422)"><path id="SvgjsPath1033" d="M 0 0L 160 0L 160 40L 0 40Z" stroke="none" fill="none"></path><g id="SvgjsG1034"><text id="SvgjsText1035" font-family="Arial" text-anchor="middle" font-size="13px" width="130" fill="#323232" font-weight="700" align="middle" anchor="middle" family="Arial" size="13px" weight="700" font-style="" y="10.05" transform="rotate(0)"><tspan id="SvgjsTspan1036" dy="16" x="80"><tspan id="SvgjsTspan1037" style="text-decoration:;">RDT 3.0 - 发送方 FSM</tspan></tspan></text></g></g><g id="SvgjsG1038" transform="translate(574.6000061035156,167.0124969482422)"><path id="SvgjsPath1039" d="M 0 18Q 0 0 18 0L 95 0Q 113 0 113 18L 113 52Q 113 70 95 70L 18 70Q 0 70 0 52L 0 18Z" stroke="#323232" stroke-width="2" fill-opacity="1" fill="#ffffff"></path><g id="SvgjsG1040"><text id="SvgjsText1041" font-family="Arial" text-anchor="middle" font-size="13px" width="85" fill="#323232" font-weight="400" align="middle" anchor="middle" family="Arial" size="13px" weight="400" font-style="" y="25.05" transform="rotate(0)"><tspan id="SvgjsTspan1042" dy="16" x="56.5"><tspan id="SvgjsTspan1043" style="text-decoration:;">Wait for ACK 0</tspan></tspan></text></g></g><g id="SvgjsG1044"><path id="SvgjsPath1045" d="M631.1000061035156 237.0124969482422L631.1000061035156 414.0124969482422" stroke="#323232" stroke-width="2" fill="none" marker-end="url(#SvgjsMarker1046)"></path></g><g id="SvgjsG1048" transform="translate(376.4000015258789,44.01249694824219)"><path id="SvgjsPath1049" d="M 0 4Q 0 0 4 0L 253.2000274658203 0Q 257.2000274658203 0 257.2000274658203 4L 257.2000274658203 82.99999237060547Q 257.2000274658203 86.99999237060547 253.2000274658203 86.99999237060547L 4 86.99999237060547Q 0 86.99999237060547 0 82.99999237060547Z" stroke-dasharray="10,6" stroke="#323232" stroke-width="1" fill-opacity="1" fill="#ffffff"></path><path id="SvgjsPath1050" d="M 0 30L 257.2000274658203 30" stroke-dasharray="10,6" stroke="#323232" stroke-width="1" fill="none"></path><path id="SvgjsPath1051" d="M 0 0L 257.2000274658203 0L 257.2000274658203 86.99999237060547L 0 86.99999237060547Z" stroke="none" fill="none"></path><g id="SvgjsG1052"><text id="SvgjsText1053" font-family="Arial" text-anchor="start" font-size="13px" width="94" fill="#000000" font-weight="700" align="middle" anchor="start" family="Arial" size="13px" weight="700" font-style="" y="5.05" transform="rotate(0)"><tspan id="SvgjsTspan1054" dy="16" x="10"><tspan id="SvgjsTspan1055" style="text-decoration:;">rdt_send (data)</tspan></tspan></text></g><g id="SvgjsG1056"><text id="SvgjsText1057" font-family="Arial" text-anchor="start" font-size="13px" width="220" fill="#000000" font-weight="400" align="middle" anchor="start" family="Arial" size="13px" weight="400" font-style="" y="32.54999618530273" transform="rotate(0)"><tspan id="SvgjsTspan1058" dy="16" x="10"><tspan id="SvgjsTspan1059" style="text-decoration:;">packet=make_pkt (0, data, checksum)</tspan></tspan><tspan id="SvgjsTspan1060" dy="16" x="10"><tspan id="SvgjsTspan1061" style="text-decoration:;">udt_send (packet)</tspan></tspan><tspan id="SvgjsTspan1062" dy="16" x="10"><tspan id="SvgjsTspan1063" style="text-decoration:;">start_timer</tspan></tspan></text></g></g><g id="SvgjsG1064"><path id="SvgjsPath1065" d="M682.585801696416 171.4267105106153C 740 102.01249694824219 800 176.0124969482422 687.6000061035156 202.0124969482422" stroke="#323232" stroke-width="2" fill="none" marker-end="url(#SvgjsMarker1066)"></path></g><g id="SvgjsG1068" transform="translate(574.6000061035156,414.0124969482422)"><path id="SvgjsPath1069" d="M 0 18Q 0 0 18 0L 95 0Q 113 0 113 18L 113 52Q 113 70 95 70L 18 70Q 0 70 0 52L 0 18Z" stroke="#323232" stroke-width="2" fill-opacity="1" fill="#ffffff"></path><g id="SvgjsG1070"><text id="SvgjsText1071" font-family="Arial" text-anchor="middle" font-size="13px" width="78" fill="#323232" font-weight="400" align="middle" anchor="middle" family="Arial" size="13px" weight="400" font-style="" y="17.05" transform="rotate(0)"><tspan id="SvgjsTspan1072" dy="16" x="56.5"><tspan id="SvgjsTspan1073" style="text-decoration:;">Wait for call 1 </tspan></tspan><tspan id="SvgjsTspan1074" dy="16" x="56.5"><tspan id="SvgjsTspan1075" style="text-decoration:;">from above</tspan></tspan></text></g></g><g id="SvgjsG1076" transform="translate(322.00001525878906,414.0124969482422)"><path id="SvgjsPath1077" d="M 0 18Q 0 0 18 0L 95 0Q 113 0 113 18L 113 52Q 113 70 95 70L 18 70Q 0 70 0 52L 0 18Z" stroke="#323232" stroke-width="2" fill-opacity="1" fill="#ffffff"></path><g id="SvgjsG1078"><text id="SvgjsText1079" font-family="Arial" text-anchor="middle" font-size="13px" width="85" fill="#323232" font-weight="400" align="middle" anchor="middle" family="Arial" size="13px" weight="400" font-style="" y="25.05" transform="rotate(0)"><tspan id="SvgjsTspan1080" dy="16" x="56.5"><tspan id="SvgjsTspan1081" style="text-decoration:;">Wait for ACK 1</tspan></tspan></text></g></g><g id="SvgjsG1082"><path id="SvgjsPath1083" d="M378.50001525878906 414.0124969482422L378.50001525878906 325.5124969482422L378.50001525878906 325.5124969482422L378.50001525878906 237.0124969482422" stroke="#323232" stroke-width="2" fill="none" marker-end="url(#SvgjsMarker1084)"></path></g><g id="SvgjsG1086"><path id="SvgjsPath1087" d="M326.4414738768953 479.0975846825082C 243 563.0124988555908 176 500.0124988555908 322.00001525878906 449.0124969482422" stroke="#323232" stroke-width="2" fill="none" marker-end="url(#SvgjsMarker1088)"></path></g><g id="SvgjsG1090" transform="translate(51,499.5124969482422)"><path id="SvgjsPath1091" d="M 0 4Q 0 0 4 0L 249.60001373291016 0Q 253.60001373291016 0 253.60001373291016 4L 253.60001373291016 58Q 253.60001373291016 62 249.60001373291016 62L 4 62Q 0 62 0 58Z" stroke-dasharray="10,6" stroke="#323232" stroke-width="1" fill-opacity="1" fill="#ffffff"></path><path id="SvgjsPath1092" d="M 0 32L 253.60001373291016 32" stroke-dasharray="10,6" stroke="#323232" stroke-width="1" fill="none"></path><path id="SvgjsPath1093" d="M 0 0L 253.60001373291016 0L 253.60001373291016 62L 0 62Z" stroke="none" fill="none"></path><g id="SvgjsG1094"><text id="SvgjsText1095" font-family="Arial" text-anchor="start" font-size="13px" width="216" fill="#000000" font-weight="700" align="middle" anchor="start" family="Arial" size="13px" weight="700" font-style="" y="-1.95" transform="rotate(0)"><tspan id="SvgjsTspan1096" dy="16" x="10"><tspan id="SvgjsTspan1097" style="text-decoration:;">rdt_rcv (rcvpkt) &amp;&amp; </tspan></tspan><tspan id="SvgjsTspan1098" dy="16" x="10"><tspan id="SvgjsTspan1099" style="text-decoration:;">(corrupt (rcvpk) || isACK(rcvpkt, 0))</tspan></tspan></text></g><g id="SvgjsG1100"><text id="SvgjsText1101" font-family="Arial" text-anchor="start" font-size="13px" width="0" fill="#000000" font-weight="400" align="middle" anchor="start" family="Arial" size="13px" weight="400" font-style="" y="37.05" transform="rotate(0)"></text></g></g><g id="SvgjsG1102"><path id="SvgjsPath1103" d="M631.1000061035156 484.0124969482422C 631.1000061035156 585.0524932861329 378.50001525878906 585.0524932861329 378.50001525878906 484.0124969482422" stroke="#323232" stroke-width="2" fill="none" marker-end="url(#SvgjsMarker1104)"></path></g><g id="SvgjsG1106" transform="translate(376.4000015258789,514.0124969482422)"><path id="SvgjsPath1107" d="M 0 4Q 0 0 4 0L 253.2000274658203 0Q 257.2000274658203 0 257.2000274658203 4L 257.2000274658203 82Q 257.2000274658203 86 253.2000274658203 86L 4 86Q 0 86 0 82Z" stroke-dasharray="10,6" stroke="#323232" stroke-width="1" fill-opacity="1" fill="#ffffff"></path><path id="SvgjsPath1108" d="M 0 30L 257.2000274658203 30" stroke-dasharray="10,6" stroke="#323232" stroke-width="1" fill="none"></path><path id="SvgjsPath1109" d="M 0 0L 257.2000274658203 0L 257.2000274658203 86L 0 86Z" stroke="none" fill="none"></path><g id="SvgjsG1110"><text id="SvgjsText1111" font-family="Arial" text-anchor="start" font-size="13px" width="94" fill="#000000" font-weight="700" align="middle" anchor="start" family="Arial" size="13px" weight="700" font-style="" y="5.05" transform="rotate(0)"><tspan id="SvgjsTspan1112" dy="16" x="10"><tspan id="SvgjsTspan1113" style="text-decoration:;">rdt_send (data)</tspan></tspan></text></g><g id="SvgjsG1114"><text id="SvgjsText1115" font-family="Arial" text-anchor="start" font-size="13px" width="220" fill="#000000" font-weight="400" align="middle" anchor="start" family="Arial" size="13px" weight="400" font-style="" y="32.05" transform="rotate(0)"><tspan id="SvgjsTspan1116" dy="16" x="10"><tspan id="SvgjsTspan1117" style="text-decoration:;">packet=make_pkt (1, data, checksum)</tspan></tspan><tspan id="SvgjsTspan1118" dy="16" x="10"><tspan id="SvgjsTspan1119" style="text-decoration:;">udt_send (packet)</tspan></tspan><tspan id="SvgjsTspan1120" dy="16" x="10"><tspan id="SvgjsTspan1121" style="text-decoration:;">start_timer</tspan></tspan></text></g></g><g id="SvgjsG1122" transform="translate(730.4000015258789,74.51249694824219)"><path id="SvgjsPath1123" d="M 0 4Q 0 0 4 0L 249.60001373291016 0Q 253.60001373291016 0 253.60001373291016 4L 253.60001373291016 74Q 253.60001373291016 78 249.60001373291016 78L 4 78Q 0 78 0 74Z" stroke-dasharray="10,6" stroke="#323232" stroke-width="1" fill-opacity="1" fill="#ffffff"></path><path id="SvgjsPath1124" d="M 0 48L 253.60001373291016 48" stroke-dasharray="10,6" stroke="#323232" stroke-width="1" fill="none"></path><path id="SvgjsPath1125" d="M 0 0L 253.60001373291016 0L 253.60001373291016 78L 0 78Z" stroke="none" fill="none"></path><g id="SvgjsG1126"><text id="SvgjsText1127" font-family="Arial" text-anchor="start" font-size="13px" width="216" fill="#000000" font-weight="700" align="middle" anchor="start" family="Arial" size="13px" weight="700" font-style="" y="6.05" transform="rotate(0)"><tspan id="SvgjsTspan1128" dy="16" x="10"><tspan id="SvgjsTspan1129" style="text-decoration:;">rdt_rcv (rcvpkt) &amp;&amp; </tspan></tspan><tspan id="SvgjsTspan1130" dy="16" x="10"><tspan id="SvgjsTspan1131" style="text-decoration:;">(corrupt (rcvpk) || isACK(rcvpkt, 1))</tspan></tspan></text></g><g id="SvgjsG1132"><text id="SvgjsText1133" font-family="Arial" text-anchor="start" font-size="13px" width="0" fill="#000000" font-weight="400" align="middle" anchor="start" family="Arial" size="13px" weight="400" font-style="" y="53.05" transform="rotate(0)"></text></g></g><g id="SvgjsG1134" transform="translate(285.0000228881836,266.7624988555908)"><path id="SvgjsPath1135" d="M 0 4Q 0 0 4 0L 182.99998474121094 0Q 186.99998474121094 0 186.99998474121094 4L 186.99998474121094 74Q 186.99998474121094 78 182.99998474121094 78L 4 78Q 0 78 0 74Z" stroke-dasharray="10,6" stroke="#323232" stroke-width="1" fill-opacity="1" fill="#ffffff"></path><path id="SvgjsPath1136" d="M 0 48L 186.99998474121094 48" stroke-dasharray="10,6" stroke="#323232" stroke-width="1" fill="none"></path><path id="SvgjsPath1137" d="M 0 0L 186.99998474121094 0L 186.99998474121094 78L 0 78Z" stroke="none" fill="none"></path><g id="SvgjsG1138"><text id="SvgjsText1139" font-family="Arial" text-anchor="start" font-size="13px" width="135" fill="#000000" font-weight="700" align="middle" anchor="start" family="Arial" size="13px" weight="700" font-style="" y="-1.95" transform="rotate(0)"><tspan id="SvgjsTspan1140" dy="16" x="10"><tspan id="SvgjsTspan1141" style="text-decoration:;">rdt_rcv (rcvpkt) </tspan></tspan><tspan id="SvgjsTspan1142" dy="16" x="10"><tspan id="SvgjsTspan1143" style="text-decoration:;">&amp;&amp; notcorrupt (rcvpk) </tspan></tspan><tspan id="SvgjsTspan1144" dy="16" x="10"><tspan id="SvgjsTspan1145" style="text-decoration:;">&amp;&amp; isACK(rcvpkt, 1))</tspan></tspan></text></g><g id="SvgjsG1146"><text id="SvgjsText1147" font-family="Arial" text-anchor="start" font-size="13px" width="61" fill="#000000" font-weight="400" align="middle" anchor="start" family="Arial" size="13px" weight="400" font-style="" y="53.05" transform="rotate(0)"><tspan id="SvgjsTspan1148" dy="16" x="10"><tspan id="SvgjsTspan1149" style="text-decoration:;">stop_timer</tspan></tspan></text></g></g><g id="SvgjsG1150" transform="translate(537.4000091552734,305.01248931884766)"><path id="SvgjsPath1151" d="M 0 4Q 0 0 4 0L 183.39999389648438 0Q 187.39999389648438 0 187.39999389648438 4L 187.39999389648438 67.49999618530273Q 187.39999389648438 71.49999618530273 183.39999389648438 71.49999618530273L 4 71.49999618530273Q 0 71.49999618530273 0 67.49999618530273Z" stroke-dasharray="10,6" stroke="#323232" stroke-width="1" fill-opacity="1" fill="#ffffff"></path><path id="SvgjsPath1152" d="M 0 48L 187.39999389648438 48" stroke-dasharray="10,6" stroke="#323232" stroke-width="1" fill="none"></path><path id="SvgjsPath1153" d="M 0 0L 187.39999389648438 0L 187.39999389648438 71.49999618530273L 0 71.49999618530273Z" stroke="none" fill="none"></path><g id="SvgjsG1154"><text id="SvgjsText1155" font-family="Arial" text-anchor="start" font-size="13px" width="135" fill="#000000" font-weight="700" align="middle" anchor="start" family="Arial" size="13px" weight="700" font-style="" y="-1.95" transform="rotate(0)"><tspan id="SvgjsTspan1156" dy="16" x="10"><tspan id="SvgjsTspan1157" style="text-decoration:;">rdt_rcv (rcvpkt) </tspan></tspan><tspan id="SvgjsTspan1158" dy="16" x="10"><tspan id="SvgjsTspan1159" style="text-decoration:;">&amp;&amp; notcorrupt (rcvpk) </tspan></tspan><tspan id="SvgjsTspan1160" dy="16" x="10"><tspan id="SvgjsTspan1161" style="text-decoration:;">&amp;&amp; isACK(rcvpkt, 0))</tspan></tspan></text></g><g id="SvgjsG1162"><text id="SvgjsText1163" font-family="Arial" text-anchor="start" font-size="13px" width="61" fill="#000000" font-weight="400" align="middle" anchor="start" family="Arial" size="13px" weight="400" font-style="" y="49.799998092651364" transform="rotate(0)"><tspan id="SvgjsTspan1164" dy="16" x="10"><tspan id="SvgjsTspan1165" style="text-decoration:;">stop_timer</tspan></tspan></text></g></g><g id="SvgjsG1166"><path id="SvgjsPath1167" d="M687.6000061035156 202.0124969482422C 828 241.0124969482422 767 308.0124969482422 687.6000061035156 237.0124969482422" stroke="#323232" stroke-width="2" fill="none" marker-end="url(#SvgjsMarker1168)"></path></g><g id="SvgjsG1170" transform="translate(741.4000015258789,229.0124969482422)"><path id="SvgjsPath1171" d="M 0 4Q 0 0 4 0L 161.5999984741211 0Q 165.5999984741211 0 165.5999984741211 4L 165.5999984741211 72Q 165.5999984741211 76 161.5999984741211 76L 4 76Q 0 76 0 72Z" stroke-dasharray="10,6" stroke="#323232" stroke-width="1" fill-opacity="1" fill="#ffffff"></path><path id="SvgjsPath1172" d="M 0 30L 165.5999984741211 30" stroke-dasharray="10,6" stroke="#323232" stroke-width="1" fill="none"></path><path id="SvgjsPath1173" d="M 0 0L 165.5999984741211 0L 165.5999984741211 76L 0 76Z" stroke="none" fill="none"></path><g id="SvgjsG1174"><text id="SvgjsText1175" font-family="Arial" text-anchor="start" font-size="13px" width="46" fill="#000000" font-weight="700" align="middle" anchor="start" family="Arial" size="13px" weight="700" font-style="" y="5.05" transform="rotate(0)"><tspan id="SvgjsTspan1176" dy="16" x="10"><tspan id="SvgjsTspan1177" style="text-decoration:;">timeout</tspan></tspan></text></g><g id="SvgjsG1178"><text id="SvgjsText1179" font-family="Arial" text-anchor="start" font-size="13px" width="104" fill="#000000" font-weight="400" align="middle" anchor="start" family="Arial" size="13px" weight="400" font-style="" y="35.05" transform="rotate(0)"><tspan id="SvgjsTspan1180" dy="16" x="10"><tspan id="SvgjsTspan1181" style="text-decoration:;">udt_send (packet)</tspan></tspan><tspan id="SvgjsTspan1182" dy="16" x="10"><tspan id="SvgjsTspan1183" style="text-decoration:;">start_timer</tspan></tspan></text></g></g><g id="SvgjsG1184"><path id="SvgjsPath1185" d="M320 450.0124988555908C 120 419.0124988555908 274 380.0124988555908 333.2940952255126 414.8421279870362" stroke="#323232" stroke-width="2" fill="none" marker-end="url(#SvgjsMarker1186)"></path></g><g id="SvgjsG1188" transform="translate(95.00000762939453,349.0124969482422)"><path id="SvgjsPath1189" d="M 0 4Q 0 0 4 0L 161.5999984741211 0Q 165.5999984741211 0 165.5999984741211 4L 165.5999984741211 72Q 165.5999984741211 76 161.5999984741211 76L 4 76Q 0 76 0 72Z" stroke-dasharray="10,6" stroke="#323232" stroke-width="1" fill-opacity="1" fill="#ffffff"></path><path id="SvgjsPath1190" d="M 0 30L 165.5999984741211 30" stroke-dasharray="10,6" stroke="#323232" stroke-width="1" fill="none"></path><path id="SvgjsPath1191" d="M 0 0L 165.5999984741211 0L 165.5999984741211 76L 0 76Z" stroke="none" fill="none"></path><g id="SvgjsG1192"><text id="SvgjsText1193" font-family="Arial" text-anchor="start" font-size="13px" width="46" fill="#000000" font-weight="700" align="middle" anchor="start" family="Arial" size="13px" weight="700" font-style="" y="5.05" transform="rotate(0)"><tspan id="SvgjsTspan1194" dy="16" x="10"><tspan id="SvgjsTspan1195" style="text-decoration:;">timeout</tspan></tspan></text></g><g id="SvgjsG1196"><text id="SvgjsText1197" font-family="Arial" text-anchor="start" font-size="13px" width="104" fill="#000000" font-weight="400" align="middle" anchor="start" family="Arial" size="13px" weight="400" font-style="" y="35.05" transform="rotate(0)"><tspan id="SvgjsTspan1198" dy="16" x="10"><tspan id="SvgjsTspan1199" style="text-decoration:;">udt_send (packet)</tspan></tspan><tspan id="SvgjsTspan1200" dy="16" x="10"><tspan id="SvgjsTspan1201" style="text-decoration:;">start_timer</tspan></tspan></text></g></g><g id="SvgjsG1202"><path id="SvgjsPath1203" d="M687.6000061035156 449.0124969482422C 821 443.0124969482422 750 552.0124969482422 687.6000061035156 484.0124969482422" stroke="#323232" stroke-width="2" fill="none" marker-end="url(#SvgjsMarker1204)"></path></g><g id="SvgjsG1206" transform="translate(744.4000015258789,457.0124969482422)"><path id="SvgjsPath1207" d="M 0 4Q 0 0 4 0L 126.5999984741211 0Q 130.5999984741211 0 130.5999984741211 4L 130.5999984741211 49.5Q 130.5999984741211 53.5 126.5999984741211 53.5L 4 53.5Q 0 53.5 0 49.5Z" stroke-dasharray="10,6" stroke="#323232" stroke-width="1" fill-opacity="1" fill="#ffffff"></path><path id="SvgjsPath1208" d="M 0 30L 130.5999984741211 30" stroke-dasharray="10,6" stroke="#323232" stroke-width="1" fill="none"></path><path id="SvgjsPath1209" d="M 0 0L 130.5999984741211 0L 130.5999984741211 53.5L 0 53.5Z" stroke="none" fill="none"></path><g id="SvgjsG1210"><text id="SvgjsText1211" font-family="Arial" text-anchor="start" font-size="13px" width="91" fill="#000000" font-weight="700" align="middle" anchor="start" family="Arial" size="13px" weight="700" font-style="" y="5.05" transform="rotate(0)"><tspan id="SvgjsTspan1212" dy="16" x="10"><tspan id="SvgjsTspan1213" style="text-decoration:;">rdt_rcv(rcvpkt)</tspan></tspan></text></g><g id="SvgjsG1214"><text id="SvgjsText1215" font-family="Arial" text-anchor="start" font-size="13px" width="0" fill="#000000" font-weight="400" align="middle" anchor="start" family="Arial" size="13px" weight="400" font-style="" y="31.8" transform="rotate(0)"></text></g></g><g id="SvgjsG1216"><path id="SvgjsPath1217" d="M322 202.0124969482422C 218 105.01249694824219 357 122.01249694824219 330.71010071662835 168.71096005217174" stroke="#323232" stroke-width="2" fill="none" marker-end="url(#SvgjsMarker1218)"></path></g><g id="SvgjsG1220" transform="translate(173,104.01249694824219)"><path id="SvgjsPath1221" d="M 0 4Q 0 0 4 0L 126.5999984741211 0Q 130.5999984741211 0 130.5999984741211 4L 130.5999984741211 49.5Q 130.5999984741211 53.5 126.5999984741211 53.5L 4 53.5Q 0 53.5 0 49.5Z" stroke-dasharray="10,6" stroke="#323232" stroke-width="1" fill-opacity="1" fill="#ffffff"></path><path id="SvgjsPath1222" d="M 0 30L 130.5999984741211 30" stroke-dasharray="10,6" stroke="#323232" stroke-width="1" fill="none"></path><path id="SvgjsPath1223" d="M 0 0L 130.5999984741211 0L 130.5999984741211 53.5L 0 53.5Z" stroke="none" fill="none"></path><g id="SvgjsG1224"><text id="SvgjsText1225" font-family="Arial" text-anchor="start" font-size="13px" width="91" fill="#000000" font-weight="700" align="middle" anchor="start" family="Arial" size="13px" weight="700" font-style="" y="5.05" transform="rotate(0)"><tspan id="SvgjsTspan1226" dy="16" x="10"><tspan id="SvgjsTspan1227" style="text-decoration:;">rdt_rcv(rcvpkt)</tspan></tspan></text></g><g id="SvgjsG1228"><text id="SvgjsText1229" font-family="Arial" text-anchor="start" font-size="13px" width="0" fill="#000000" font-weight="400" align="middle" anchor="start" family="Arial" size="13px" weight="400" font-style="" y="31.8" transform="rotate(0)"></text></g></g><g id="SvgjsG1230" transform="translate(78,137.5124969482422)"><path id="SvgjsPath1231" d="M 0 0L 106 0L 122 16L 122 44.5L 0 44.5L 0 0Z" stroke="none" fill-opacity="1" fill="#ffffaa"></path><path id="SvgjsPath1232" d="M 106 0L 106 16L 122 16Z" stroke="none" fill-opacity="1" fill="#cdcdcd"></path><path id="SvgjsPath1233" d="M 0 0L 106 0L 122 16L 122 44.5L 0 44.5L 0 0Z" stroke="none" fill="none"></path><g id="SvgjsG1234"><text id="SvgjsText1235" font-family="Arial" text-anchor="middle" font-size="13px" width="90" fill="#323232" font-weight="400" align="middle" anchor="middle" family="Arial" size="13px" weight="400" font-style="" y="4.3" transform="rotate(0)"><tspan id="SvgjsTspan1236" dy="16" x="61"><tspan id="SvgjsTspan1237" style="text-decoration:;">可能是过度延迟</tspan></tspan><tspan id="SvgjsTspan1238" dy="16" x="61"><tspan id="SvgjsTspan1239" style="text-decoration:;">的ACK</tspan></tspan></text></g></g></svg>