<svg id="SvgjsSvg1006" width="921" height="783.0125007629395" xmlns="http://www.w3.org/2000/svg" version="1.1" xmlns:xlink="http://www.w3.org/1999/xlink" xmlns:svgjs="http://svgjs.com/svgjs"><defs id="SvgjsDefs1007"><marker id="SvgjsMarker1030" markerWidth="16" markerHeight="12" refX="16" refY="6" viewBox="0 0 16 12" orient="auto" markerUnits="userSpaceOnUse"><path id="SvgjsPath1031" d="M0,2 L14,6 L0,11 L0,2" fill="#323232" stroke="#323232" stroke-width="2"></path></marker><marker id="SvgjsMarker1034" markerWidth="16" markerHeight="12" refX="16" refY="6" viewBox="0 0 16 12" orient="auto" markerUnits="userSpaceOnUse"><path id="SvgjsPath1035" d="M0,2 L14,6 L0,11 L0,2" fill="#323232" stroke="#323232" stroke-width="2"></path></marker><marker id="SvgjsMarker1056" markerWidth="16" markerHeight="12" refX="16" refY="6" viewBox="0 0 16 12" orient="auto" markerUnits="userSpaceOnUse"><path id="SvgjsPath1057" d="M0,2 L14,6 L0,11 L0,2" fill="#00994d" stroke="#00994d" stroke-width="2"></path></marker><marker id="SvgjsMarker1060" markerWidth="16" markerHeight="12" refX="16" refY="6" viewBox="0 0 16 12" orient="auto" markerUnits="userSpaceOnUse"><path id="SvgjsPath1061" d="M0,2 L14,6 L0,11 L0,2" fill="#00994d" stroke="#00994d" stroke-width="2"></path></marker><marker id="SvgjsMarker1078" markerWidth="16" markerHeight="12" refX="16" refY="6" viewBox="0 0 16 12" orient="auto" markerUnits="userSpaceOnUse"><path id="SvgjsPath1079" d="M0,2 L14,6 L0,11 L0,2" fill="#323232" stroke="#323232" stroke-width="2"></path></marker><marker id="SvgjsMarker1106" markerWidth="16" markerHeight="12" refX="16" refY="6" viewBox="0 0 16 12" orient="auto" markerUnits="userSpaceOnUse"><path id="SvgjsPath1107" d="M0,2 L14,6 L0,11 L0,2" fill="#323232" stroke="#323232" stroke-width="2"></path></marker><marker id="SvgjsMarker1122" markerWidth="16" markerHeight="12" refX="16" refY="6" viewBox="0 0 16 12" orient="auto" markerUnits="userSpaceOnUse"><path id="SvgjsPath1123" d="M0,2 L14,6 L0,11 L0,2" fill="#00994d" stroke="#00994d" stroke-width="2"></path></marker></defs><g id="SvgjsG1008" transform="translate(25.000015258789062,25.01249885559082)"><path id="SvgjsPath1009" d="M 0 0L 871 0L 871 369L 0 369Z" stroke="#323232" stroke-width="1" fill-opacity="1" fill="#ffffff"></path><g id="SvgjsG1010"><text id="SvgjsText1011" font-family="微软雅黑" text-anchor="middle" font-size="13px" width="0" fill="#323232" font-weight="400" align="middle" anchor="middle" family="微软雅黑" size="13px" weight="400" font-style="" y="174.55" transform="rotate(0)"></text></g></g><g id="SvgjsG1012" transform="translate(25.000015258789062,411.01250648498535)"><path id="SvgjsPath1013" d="M 0 0L 871 0L 871 347L 0 347Z" stroke="#009900" stroke-width="1" fill-opacity="1" fill="#ffffff"></path><g id="SvgjsG1014"><text id="SvgjsText1015" font-family="微软雅黑" text-anchor="middle" font-size="13px" width="0" fill="#323232" font-weight="400" align="middle" anchor="middle" family="微软雅黑" size="13px" weight="400" font-style="" y="163.55" transform="rotate(0)"></text></g></g><g id="SvgjsG1016" transform="translate(43.600006103515625,194.01249885559082)"><path id="SvgjsPath1017" d="M 0 20C 0 -6.666666666666667 40 -6.666666666666667 40 20C 40 46.666666666666664 0 46.666666666666664 0 20Z" stroke="none" fill-opacity="1" fill="#323232"></path><g id="SvgjsG1018"><text id="SvgjsText1019" font-family="Arial" text-anchor="middle" font-size="13px" width="0" fill="#323232" font-weight="400" align="middle" anchor="middle" family="Arial" size="13px" weight="400" font-style="" y="45.05" transform="rotate(0)"></text></g></g><g id="SvgjsG1020" transform="translate(137.00001525878906,179.01249885559082)"><path id="SvgjsPath1021" d="M 0 18Q 0 0 18 0L 95 0Q 113 0 113 18L 113 52Q 113 70 95 70L 18 70Q 0 70 0 52L 0 18Z" stroke="#323232" stroke-width="2" fill-opacity="1" fill="#ffffff"></path><g id="SvgjsG1022"><text id="SvgjsText1023" font-family="Arial" text-anchor="middle" font-size="13px" width="68" fill="#323232" font-weight="400" align="middle" anchor="middle" family="Arial" size="13px" weight="400" font-style="" y="17.05" transform="rotate(0)"><tspan id="SvgjsTspan1024" dy="16" x="56.5"><tspan id="SvgjsTspan1025" style="text-decoration:;">Wait for call </tspan></tspan><tspan id="SvgjsTspan1026" dy="16" x="56.5"><tspan id="SvgjsTspan1027" style="text-decoration:;">from above</tspan></tspan></text></g></g><g id="SvgjsG1028"><path id="SvgjsPath1029" d="M83.60000610351562 214.01249885559082L137.00001525878906 214.01249885559082" stroke="#323232" stroke-width="2" fill="none" marker-end="url(#SvgjsMarker1030)"></path></g><g id="SvgjsG1032"><path id="SvgjsPath1033" d="M193.50001525878906 179.01249885559082C 193.5000152587891 56.372502517700184 500.1000061035156 56.372502517700184 500.1000061035156 179.01249885559082" stroke="#323232" stroke-width="2" fill="none" marker-end="url(#SvgjsMarker1034)"></path></g><g id="SvgjsG1036" transform="translate(358.50001525878906,354.0124988555908)"><path id="SvgjsPath1037" d="M 0 0L 160 0L 160 40L 0 40Z" stroke="none" fill="none"></path><g id="SvgjsG1038"><text id="SvgjsText1039" font-family="微软雅黑" text-anchor="middle" font-size="13px" width="126" fill="#323232" font-weight="700" align="middle" anchor="middle" family="微软雅黑" size="13px" weight="700" font-style="" y="10.05" transform="rotate(0)"><tspan id="SvgjsTspan1040" dy="16" x="80"><tspan id="SvgjsTspan1041" style="text-decoration:;">RDT 2.0 发送方 FSM</tspan></tspan></text></g></g><g id="SvgjsG1042" transform="translate(43.600006103515625,554.0124988555908)"><path id="SvgjsPath1043" d="M 0 20C 0 -6.666666666666667 40 -6.666666666666667 40 20C 40 46.666666666666664 0 46.666666666666664 0 20Z" stroke="none" fill-opacity="1" fill="#323232"></path><g id="SvgjsG1044"><text id="SvgjsText1045" font-family="Arial" text-anchor="middle" font-size="13px" width="0" fill="#00994d" font-weight="400" align="middle" anchor="middle" family="Arial" size="13px" weight="400" font-style="" y="45.05" transform="rotate(0)"></text></g></g><g id="SvgjsG1046" transform="translate(137.00001525878906,539.0124988555908)"><path id="SvgjsPath1047" d="M 0 18Q 0 0 18 0L 95 0Q 113 0 113 18L 113 52Q 113 70 95 70L 18 70Q 0 70 0 52L 0 18Z" stroke="#00994d" stroke-width="2" fill-opacity="1" fill="#ffffff"></path><g id="SvgjsG1048"><text id="SvgjsText1049" font-family="Arial" text-anchor="middle" font-size="13px" width="68" fill="#00994d" font-weight="400" align="middle" anchor="middle" family="Arial" size="13px" weight="400" font-style="" y="17.05" transform="rotate(0)"><tspan id="SvgjsTspan1050" dy="16" x="56.5"><tspan id="SvgjsTspan1051" style="text-decoration:;">Wait for call </tspan></tspan><tspan id="SvgjsTspan1052" dy="16" x="56.5"><tspan id="SvgjsTspan1053" style="text-decoration:;">from below</tspan></tspan></text></g></g><g id="SvgjsG1054"><path id="SvgjsPath1055" d="M83.60000610351562 574.0124988555908L137.00001525878906 574.0124988555908" stroke="#00994d" stroke-width="2" fill="none" marker-end="url(#SvgjsMarker1056)"></path></g><g id="SvgjsG1058"><path id="SvgjsPath1059" d="M241.86431484361833 541.4503532072052C 268.4000244140625 457.01250648498535 134.4000244140625 448.01250648498535 152.66149164230546 540.0010905792606" stroke="#00994d" stroke-width="2" fill="none" marker-end="url(#SvgjsMarker1060)"></path></g><g id="SvgjsG1062" transform="translate(358.50001525878906,718.0125064849854)"><path id="SvgjsPath1063" d="M 0 0L 160 0L 160 40L 0 40Z" stroke="none" fill="none"></path><g id="SvgjsG1064"><text id="SvgjsText1065" font-family="微软雅黑" text-anchor="middle" font-size="13px" width="126" fill="#00994d" font-weight="700" align="middle" anchor="middle" family="微软雅黑" size="13px" weight="700" font-style="" y="10.05" transform="rotate(0)"><tspan id="SvgjsTspan1066" dy="16" x="80"><tspan id="SvgjsTspan1067" style="text-decoration:;">RDT 2.0 接收方 FSM</tspan></tspan></text></g></g><g id="SvgjsG1068" transform="translate(443.6000061035156,179.01249885559082)"><path id="SvgjsPath1069" d="M 0 18Q 0 0 18 0L 95 0Q 113 0 113 18L 113 52Q 113 70 95 70L 18 70Q 0 70 0 52L 0 18Z" stroke="#323232" stroke-width="2" fill-opacity="1" fill="#ffffff"></path><g id="SvgjsG1070"><text id="SvgjsText1071" font-family="Arial" text-anchor="middle" font-size="13px" width="90" fill="#323232" font-weight="400" align="middle" anchor="middle" family="Arial" size="13px" weight="400" font-style="" y="17.05" transform="rotate(0)"><tspan id="SvgjsTspan1072" dy="16" x="56.5"><tspan id="SvgjsTspan1073" style="text-decoration:;">Wait for ACK or </tspan></tspan><tspan id="SvgjsTspan1074" dy="16" x="56.5"><tspan id="SvgjsTspan1075" style="text-decoration:;">NAK</tspan></tspan></text></g></g><g id="SvgjsG1076"><path id="SvgjsPath1077" d="M500.1000061035156 249.01249885559082C 500.1000061035156 371.65249519348146 193.5000152587891 371.65249519348146 193.50001525878906 249.01249885559082" stroke="#323232" stroke-width="2" fill="none" marker-end="url(#SvgjsMarker1078)"></path></g><g id="SvgjsG1080" transform="translate(235.4000015258789,68.01249885559082)"><path id="SvgjsPath1081" d="M 0 4Q 0 0 4 0L 225.40000915527344 0Q 229.40000915527344 0 229.40000915527344 4L 229.40000915527344 71Q 229.40000915527344 75 225.40000915527344 75L 4 75Q 0 75 0 71Z" stroke-dasharray="10,6" stroke="#323232" stroke-width="1" fill-opacity="1" fill="#ffffff"></path><path id="SvgjsPath1082" d="M 0 30L 229.40000915527344 30" stroke-dasharray="10,6" stroke="#323232" stroke-width="1" fill="none"></path><path id="SvgjsPath1083" d="M 0 0L 229.40000915527344 0L 229.40000915527344 75L 0 75Z" stroke="none" fill="none"></path><g id="SvgjsG1084"><text id="SvgjsText1085" font-family="Arial" text-anchor="start" font-size="13px" width="94" fill="#000000" font-weight="700" align="middle" anchor="start" family="Arial" size="13px" weight="700" font-style="" y="5.05" transform="rotate(0)"><tspan id="SvgjsTspan1086" dy="16" x="10"><tspan id="SvgjsTspan1087" style="text-decoration:;">rdt_send (data)</tspan></tspan></text></g><g id="SvgjsG1088"><text id="SvgjsText1089" font-family="Arial" text-anchor="start" font-size="13px" width="205" fill="#000000" font-weight="400" align="middle" anchor="start" family="Arial" size="13px" weight="400" font-style="" y="34.55" transform="rotate(0)"><tspan id="SvgjsTspan1090" dy="16" x="10"><tspan id="SvgjsTspan1091" style="text-decoration:;">packet=make_pkt (data, checksum)</tspan></tspan><tspan id="SvgjsTspan1092" dy="16" x="10"><tspan id="SvgjsTspan1093" style="text-decoration:;">udt_send (packet)</tspan></tspan></text></g></g><g id="SvgjsG1094" transform="translate(235.4000015258789,284.0124988555908)"><path id="SvgjsPath1095" d="M 0 4Q 0 0 4 0L 225.40000915527344 0Q 229.40000915527344 0 229.40000915527344 4L 229.40000915527344 56Q 229.40000915527344 60 225.40000915527344 60L 4 60Q 0 60 0 56Z" stroke-dasharray="10,6" stroke="#323232" stroke-width="1" fill-opacity="1" fill="#ffffff"></path><path id="SvgjsPath1096" d="M 0 30L 229.40000915527344 30" stroke-dasharray="10,6" stroke="#323232" stroke-width="1" fill="none"></path><path id="SvgjsPath1097" d="M 0 0L 229.40000915527344 0L 229.40000915527344 60L 0 60Z" stroke="none" fill="none"></path><g id="SvgjsG1098"><text id="SvgjsText1099" font-family="Arial" text-anchor="middle" font-size="13px" width="208" fill="#000000" font-weight="700" align="middle" anchor="middle" family="Arial" size="13px" weight="700" font-style="" y="5.05" transform="rotate(0)"><tspan id="SvgjsTspan1100" dy="16" x="115"><tspan id="SvgjsTspan1101" style="text-decoration:;">rdt_rcv (rcvpkt) &amp;&amp; isACK(rcvpkt)</tspan></tspan></text></g><g id="SvgjsG1102"><text id="SvgjsText1103" font-family="Arial" text-anchor="start" font-size="13px" width="0" fill="#000000" font-weight="400" align="middle" anchor="start" family="Arial" size="13px" weight="400" font-style="" y="35.05" transform="rotate(0)"></text></g></g><g id="SvgjsG1104"><path id="SvgjsPath1105" d="M551.585801696416 183.42671241796393C 638.0000152587891 157.01249885559082 635.0000152587891 273.0124988555908 551.7573745716697 243.7698581684715" stroke="#323232" stroke-width="2" fill="none" marker-end="url(#SvgjsMarker1106)"></path></g><g id="SvgjsG1108" transform="translate(631.4000015258789,180.51249885559082)"><path id="SvgjsPath1109" d="M 0 4Q 0 0 4 0L 236.60001373291016 0Q 240.60001373291016 0 240.60001373291016 4L 240.60001373291016 63Q 240.60001373291016 67 236.60001373291016 67L 4 67Q 0 67 0 63Z" stroke-dasharray="10,6" stroke="#323232" stroke-width="1" fill-opacity="1" fill="#ffffff"></path><path id="SvgjsPath1110" d="M 0 30L 240.60001373291016 30" stroke-dasharray="10,6" stroke="#323232" stroke-width="1" fill="none"></path><path id="SvgjsPath1111" d="M 0 0L 240.60001373291016 0L 240.60001373291016 67L 0 67Z" stroke="none" fill="none"></path><g id="SvgjsG1112"><text id="SvgjsText1113" font-family="Arial" text-anchor="middle" font-size="13px" width="208" fill="#000000" font-weight="700" align="middle" anchor="middle" family="Arial" size="13px" weight="700" font-style="" y="5.05" transform="rotate(0)"><tspan id="SvgjsTspan1114" dy="16" x="120.5"><tspan id="SvgjsTspan1115" style="text-decoration:;">rdt_rcv (rcvpkt) &amp;&amp; isNAK(rcvpkt)</tspan></tspan></text></g><g id="SvgjsG1116"><text id="SvgjsText1117" font-family="Arial" text-anchor="start" font-size="13px" width="104" fill="#000000" font-weight="400" align="middle" anchor="start" family="Arial" size="13px" weight="400" font-style="" y="38.55" transform="rotate(0)"><tspan id="SvgjsTspan1118" dy="16" x="10"><tspan id="SvgjsTspan1119" style="text-decoration:;">udt_send (packet)</tspan></tspan></text></g></g><g id="SvgjsG1120"><path id="SvgjsPath1121" d="M237.88238632385747 608.0806548324072C 263.4000244140625 697.0125064849854 126.4000244140625 687.0125064849854 151.92295887054846 608.0353382964349" stroke="#00994d" stroke-width="2" fill="none" marker-end="url(#SvgjsMarker1122)"></path></g><g id="SvgjsG1124" transform="translate(259.8500061035156,588.0125064849854)"><path id="SvgjsPath1125" d="M 0 4Q 0 0 4 0L 353.3000183105469 0Q 357.3000183105469 0 357.3000183105469 4L 357.3000183105469 101.99999237060547Q 357.3000183105469 105.99999237060547 353.3000183105469 105.99999237060547L 4 105.99999237060547Q 0 105.99999237060547 0 101.99999237060547Z" stroke-dasharray="10,6" stroke="#00994d" stroke-width="1" fill-opacity="1" fill="#ffffff"></path><path id="SvgjsPath1126" d="M 0 30L 357.3000183105469 30" stroke-dasharray="10,6" stroke="#00994d" stroke-width="1" fill="none"></path><path id="SvgjsPath1127" d="M 0 0L 357.3000183105469 0L 357.3000183105469 105.99999237060547L 0 105.99999237060547Z" stroke="none" fill="none"></path><g id="SvgjsG1128"><text id="SvgjsText1129" font-family="Arial" text-anchor="start" font-size="13px" width="238" fill="#00994d" font-weight="700" align="middle" anchor="start" family="Arial" size="13px" weight="700" font-style="" y="5.05" transform="rotate(0)"><tspan id="SvgjsTspan1130" dy="16" x="10"><tspan id="SvgjsTspan1131" style="text-decoration:;">rdt_rcv (rcvpkt) &amp;&amp; notcorrupt (rcvpkt)</tspan></tspan></text></g><g id="SvgjsG1132"><text id="SvgjsText1133" font-family="Arial" text-anchor="start" font-size="13px" width="145" fill="#00994d" font-weight="400" align="middle" anchor="start" family="Arial" size="13px" weight="400" font-style="" y="34.04999618530273" transform="rotate(0)"><tspan id="SvgjsTspan1134" dy="16" x="10"><tspan id="SvgjsTspan1135" style="text-decoration:;">data = extract(rcvpkt)</tspan></tspan><tspan id="SvgjsTspan1136" dy="16" x="10"><tspan id="SvgjsTspan1137" style="text-decoration:;">deliver_data(data)</tspan></tspan><tspan id="SvgjsTspan1138" dy="16" x="10"><tspan id="SvgjsTspan1139" style="text-decoration:;">sndpkt = make_pkt(ACK)</tspan></tspan><tspan id="SvgjsTspan1140" dy="16" x="10"><tspan id="SvgjsTspan1141" style="text-decoration:;">udt_send(sndpkt)</tspan></tspan></text></g></g><g id="SvgjsG1142" transform="translate(259.8500061035156,445.0124988555908)"><path id="SvgjsPath1143" d="M 0 4Q 0 0 4 0L 353.3000183105469 0Q 357.3000183105469 0 357.3000183105469 4L 357.3000183105469 70.00000190734863Q 357.3000183105469 74.00000190734863 353.3000183105469 74.00000190734863L 4 74.00000190734863Q 0 74.00000190734863 0 70.00000190734863Z" stroke-dasharray="10,6" stroke="#00994d" stroke-width="1" fill-opacity="1" fill="#ffffff"></path><path id="SvgjsPath1144" d="M 0 30L 357.3000183105469 30" stroke-dasharray="10,6" stroke="#00994d" stroke-width="1" fill="none"></path><path id="SvgjsPath1145" d="M 0 0L 357.3000183105469 0L 357.3000183105469 74.00000190734863L 0 74.00000190734863Z" stroke="none" fill="none"></path><g id="SvgjsG1146"><text id="SvgjsText1147" font-family="Arial" text-anchor="start" font-size="13px" width="218" fill="#00994d" font-weight="700" align="middle" anchor="start" family="Arial" size="13px" weight="700" font-style="" y="5.05" transform="rotate(0)"><tspan id="SvgjsTspan1148" dy="16" x="10"><tspan id="SvgjsTspan1149" style="text-decoration:;">rdt_rcv (rcvpkt) &amp;&amp; corrupt (rcvpkt)</tspan></tspan></text></g><g id="SvgjsG1150"><text id="SvgjsText1151" font-family="Arial" text-anchor="start" font-size="13px" width="145" fill="#00994d" font-weight="400" align="middle" anchor="start" family="Arial" size="13px" weight="400" font-style="" y="34.050000953674314" transform="rotate(0)"><tspan id="SvgjsTspan1152" dy="16" x="10"><tspan id="SvgjsTspan1153" style="text-decoration:;">sndpkt = make_pkt(NAK)</tspan></tspan><tspan id="SvgjsTspan1154" dy="16" x="10"><tspan id="SvgjsTspan1155" style="text-decoration:;">udt_send(sndpkt)</tspan></tspan></text></g></g></svg>