<svg id="SvgjsSvg1096" width="924.0125274658203" height="286" xmlns="http://www.w3.org/2000/svg" version="1.1" xmlns:xlink="http://www.w3.org/1999/xlink" xmlns:svgjs="http://svgjs.com/svgjs"><defs id="SvgjsDefs1097"><marker id="SvgjsMarker1120" markerWidth="16" markerHeight="12" refX="16" refY="6" viewBox="0 0 16 12" orient="auto" markerUnits="userSpaceOnUse"><path id="SvgjsPath1121" d="M0,2 L14,6 L0,11 L0,2" fill="#323232" stroke="#323232" stroke-width="2"></path></marker><marker id="SvgjsMarker1124" markerWidth="16" markerHeight="12" refX="16" refY="6" viewBox="0 0 16 12" orient="auto" markerUnits="userSpaceOnUse"><path id="SvgjsPath1125" d="M0,2 L14,6 L0,11 L0,2" fill="#323232" stroke="#323232" stroke-width="2"></path></marker><marker id="SvgjsMarker1160" markerWidth="16" markerHeight="12" refX="16" refY="6" viewBox="0 0 16 12" orient="auto" markerUnits="userSpaceOnUse"><path id="SvgjsPath1161" d="M0,2 L14,6 L0,11 L0,2" fill="#00994d" stroke="#00994d" stroke-width="2"></path></marker><marker id="SvgjsMarker1164" markerWidth="16" markerHeight="12" refX="16" refY="6" viewBox="0 0 16 12" orient="auto" markerUnits="userSpaceOnUse"><path id="SvgjsPath1165" d="M0,2 L14,6 L0,11 L0,2" fill="#00994d" stroke="#00994d" stroke-width="2"></path></marker></defs><g id="SvgjsG1098" transform="translate(473.0124969482422,25)"><path id="SvgjsPath1099" d="M 0 0L 425 0L 425 236L 0 236Z" stroke="#00994d" stroke-width="1" fill-opacity="1" fill="#ffffff"></path><g id="SvgjsG1100"><text id="SvgjsText1101" font-family="微软雅黑" text-anchor="middle" font-size="13px" width="0" fill="#00994d" font-weight="400" align="middle" anchor="middle" family="微软雅黑" size="13px" weight="400" font-style="" y="108.05" transform="rotate(0)"></text></g></g><g id="SvgjsG1102" transform="translate(25.012496948242188,25)"><path id="SvgjsPath1103" d="M 0 0L 425 0L 425 236L 0 236Z" stroke="#323232" stroke-width="1" fill-opacity="1" fill="#ffffff"></path><g id="SvgjsG1104"><text id="SvgjsText1105" font-family="微软雅黑" text-anchor="middle" font-size="13px" width="0" fill="#323232" font-weight="400" align="middle" anchor="middle" family="微软雅黑" size="13px" weight="400" font-style="" y="108.05" transform="rotate(0)"></text></g></g><g id="SvgjsG1106" transform="translate(42.01249694824219,140)"><path id="SvgjsPath1107" d="M 0 20C 0 -6.666666666666667 40 -6.666666666666667 40 20C 40 46.666666666666664 0 46.666666666666664 0 20Z" stroke="none" fill-opacity="1" fill="#323232"></path><g id="SvgjsG1108"><text id="SvgjsText1109" font-family="Arial" text-anchor="middle" font-size="13px" width="0" fill="#323232" font-weight="400" align="middle" anchor="middle" family="Arial" size="13px" weight="400" font-style="" y="45.05" transform="rotate(0)"></text></g></g><g id="SvgjsG1110" transform="translate(121.01249694824219,125)"><path id="SvgjsPath1111" d="M 0 18Q 0 0 18 0L 95 0Q 113 0 113 18L 113 52Q 113 70 95 70L 18 70Q 0 70 0 52L 0 18Z" stroke="#323232" stroke-width="2" fill-opacity="1" fill="#ffffff"></path><g id="SvgjsG1112"><text id="SvgjsText1113" font-family="Arial" text-anchor="middle" font-size="13px" width="68" fill="#323232" font-weight="400" align="middle" anchor="middle" family="Arial" size="13px" weight="400" font-style="" y="17.05" transform="rotate(0)"><tspan id="SvgjsTspan1114" dy="16" x="56.5"><tspan id="SvgjsTspan1115" style="text-decoration:;">Wait for call </tspan></tspan><tspan id="SvgjsTspan1116" dy="16" x="56.5"><tspan id="SvgjsTspan1117" style="text-decoration:;">from above</tspan></tspan></text></g></g><g id="SvgjsG1118"><path id="SvgjsPath1119" d="M82.01249694824219 160L121.01249694824219 160" stroke="#323232" stroke-width="2" fill="none" marker-end="url(#SvgjsMarker1120)"></path></g><g id="SvgjsG1122"><path id="SvgjsPath1123" d="M234.0124969482422 160C 306.0124969482422 88 186.0124969482422 46 177.5124969482422 125" stroke="#323232" stroke-width="2" fill="none" marker-end="url(#SvgjsMarker1124)"></path></g><g id="SvgjsG1126" transform="translate(268.0124969482422,50)"><path id="SvgjsPath1127" d="M 0 4Q 0 0 4 0L 161 0Q 165 0 165 4L 165 58Q 165 62 161 62L 4 62Q 0 62 0 58Z" stroke-dasharray="10,6" stroke="#323232" stroke-width="1" fill-opacity="1" fill="#ffffff"></path><path id="SvgjsPath1128" d="M 0 30L 165 30" stroke-dasharray="10,6" stroke="#323232" stroke-width="1" fill="none"></path><path id="SvgjsPath1129" d="M 0 0L 165 0L 165 62L 0 62Z" stroke="none" fill="none"></path><g id="SvgjsG1130"><text id="SvgjsText1131" font-family="Arial" text-anchor="start" font-size="13px" width="94" fill="#000000" font-weight="700" align="middle" anchor="start" family="Arial" size="13px" weight="700" font-style="" y="5.05" transform="rotate(0)"><tspan id="SvgjsTspan1132" dy="16" x="10"><tspan id="SvgjsTspan1133" style="text-decoration:;">rdt_send (data)</tspan></tspan></text></g><g id="SvgjsG1134"><text id="SvgjsText1135" font-family="Arial" text-anchor="start" font-size="13px" width="140" fill="#000000" font-weight="400" align="middle" anchor="start" family="Arial" size="13px" weight="400" font-style="" y="28.05" transform="rotate(0)"><tspan id="SvgjsTspan1136" dy="16" x="10"><tspan id="SvgjsTspan1137" style="text-decoration:;">packet=make_pkt (data)</tspan></tspan><tspan id="SvgjsTspan1138" dy="16" x="10"><tspan id="SvgjsTspan1139" style="text-decoration:;">udt_send (packet)</tspan></tspan></text></g></g><g id="SvgjsG1140" transform="translate(149.0124969482422,216)"><path id="SvgjsPath1141" d="M 0 0L 160 0L 160 40L 0 40Z" stroke="none" fill="none"></path><g id="SvgjsG1142"><text id="SvgjsText1143" font-family="微软雅黑" text-anchor="middle" font-size="13px" width="126" fill="#323232" font-weight="700" align="middle" anchor="middle" family="微软雅黑" size="13px" weight="700" font-style="" y="10.05" transform="rotate(0)"><tspan id="SvgjsTspan1144" dy="16" x="80"><tspan id="SvgjsTspan1145" style="text-decoration:;">RDT 1.0 发送方 FSM</tspan></tspan></text></g></g><g id="SvgjsG1146" transform="translate(492.0124969482422,140)"><path id="SvgjsPath1147" d="M 0 20C 0 -6.666666666666667 40 -6.666666666666667 40 20C 40 46.666666666666664 0 46.666666666666664 0 20Z" stroke="none" fill-opacity="1" fill="#323232"></path><g id="SvgjsG1148"><text id="SvgjsText1149" font-family="Arial" text-anchor="middle" font-size="13px" width="0" fill="#00994d" font-weight="400" align="middle" anchor="middle" family="Arial" size="13px" weight="400" font-style="" y="45.05" transform="rotate(0)"></text></g></g><g id="SvgjsG1150" transform="translate(573.0124969482422,125)"><path id="SvgjsPath1151" d="M 0 18Q 0 0 18 0L 95 0Q 113 0 113 18L 113 52Q 113 70 95 70L 18 70Q 0 70 0 52L 0 18Z" stroke="#00994d" stroke-width="2" fill-opacity="1" fill="#ffffff"></path><g id="SvgjsG1152"><text id="SvgjsText1153" font-family="Arial" text-anchor="middle" font-size="13px" width="68" fill="#00994d" font-weight="400" align="middle" anchor="middle" family="Arial" size="13px" weight="400" font-style="" y="17.05" transform="rotate(0)"><tspan id="SvgjsTspan1154" dy="16" x="56.5"><tspan id="SvgjsTspan1155" style="text-decoration:;">Wait for call </tspan></tspan><tspan id="SvgjsTspan1156" dy="16" x="56.5"><tspan id="SvgjsTspan1157" style="text-decoration:;">from below</tspan></tspan></text></g></g><g id="SvgjsG1158"><path id="SvgjsPath1159" d="M532.0124969482422 160L573.0124969482422 160" stroke="#00994d" stroke-width="2" fill="none" marker-end="url(#SvgjsMarker1160)"></path></g><g id="SvgjsG1162"><path id="SvgjsPath1163" d="M686.0124969482422 160C 758.0124969482422 88 638.0124969482422 46 629.5124969482422 125" stroke="#00994d" stroke-width="2" fill="none" marker-end="url(#SvgjsMarker1164)"></path></g><g id="SvgjsG1166" transform="translate(720.0124969482422,50)"><path id="SvgjsPath1167" d="M 0 4Q 0 0 4 0L 161 0Q 165 0 165 4L 165 58Q 165 62 161 62L 4 62Q 0 62 0 58Z" stroke-dasharray="10,6" stroke="#00994d" stroke-width="1" fill-opacity="1" fill="#ffffff"></path><path id="SvgjsPath1168" d="M 0 30L 165 30" stroke-dasharray="10,6" stroke="#00994d" stroke-width="1" fill="none"></path><path id="SvgjsPath1169" d="M 0 0L 165 0L 165 62L 0 62Z" stroke="none" fill="none"></path><g id="SvgjsG1170"><text id="SvgjsText1171" font-family="Arial" text-anchor="start" font-size="13px" width="98" fill="#00994d" font-weight="700" align="middle" anchor="start" family="Arial" size="13px" weight="700" font-style="" y="5.05" transform="rotate(0)"><tspan id="SvgjsTspan1172" dy="16" x="10"><tspan id="SvgjsTspan1173" style="text-decoration:;">rdt_rcv (packet)</tspan></tspan></text></g><g id="SvgjsG1174"><text id="SvgjsText1175" font-family="Arial" text-anchor="start" font-size="13px" width="122" fill="#00994d" font-weight="400" align="middle" anchor="start" family="Arial" size="13px" weight="400" font-style="" y="28.05" transform="rotate(0)"><tspan id="SvgjsTspan1176" dy="16" x="10"><tspan id="SvgjsTspan1177" style="text-decoration:;">data=extract (packet)</tspan></tspan><tspan id="SvgjsTspan1178" dy="16" x="10"><tspan id="SvgjsTspan1179" style="text-decoration:;">deliver_data (data)</tspan></tspan></text></g></g><g id="SvgjsG1180" transform="translate(605.5124969482422,216)"><path id="SvgjsPath1181" d="M 0 0L 160 0L 160 40L 0 40Z" stroke="none" fill="none"></path><g id="SvgjsG1182"><text id="SvgjsText1183" font-family="微软雅黑" text-anchor="middle" font-size="13px" width="126" fill="#00994d" font-weight="700" align="middle" anchor="middle" family="微软雅黑" size="13px" weight="700" font-style="" y="10.05" transform="rotate(0)"><tspan id="SvgjsTspan1184" dy="16" x="80"><tspan id="SvgjsTspan1185" style="text-decoration:;">RDT 1.0 接收方 FSM</tspan></tspan></text></g></g></svg>