<svg id="SvgjsSvg1076" width="830" height="396" xmlns="http://www.w3.org/2000/svg" version="1.1" xmlns:xlink="http://www.w3.org/1999/xlink" xmlns:svgjs="http://svgjs.com/svgjs"><defs id="SvgjsDefs1077"><marker id="SvgjsMarker1142" markerWidth="20" markerHeight="12" refX="0" refY="6" viewBox="0 0 20 12" orient="auto" markerUnits="userSpaceOnUse" stroke-dasharray="0,0"><path id="SvgjsPath1143" d="M2,6 L10,2 L18,6 L10,10L2,6" fill="#ffffff" stroke="#323232" stroke-width="2"></path></marker><marker id="SvgjsMarker1146" markerWidth="20" markerHeight="12" refX="0" refY="6" viewBox="0 0 20 12" orient="auto" markerUnits="userSpaceOnUse" stroke-dasharray="0,0"><path id="SvgjsPath1147" d="M2,6 L10,2 L18,6 L10,10L2,6" fill="#ffffff" stroke="#323232" stroke-width="2"></path></marker><marker id="SvgjsMarker1150" markerWidth="16" markerHeight="16" refX="11" refY="8" viewBox="0 0 16 16" orient="auto" markerUnits="userSpaceOnUse" stroke-dasharray="0,0"><path id="SvgjsPath1151" d="M0,0 L10,8 L0,16" fill="none" stroke="#323232" stroke-width="2"></path></marker></defs><g id="SvgjsG1078" transform="translate(25,25)"><path id="SvgjsPath1079" d="M 0 4Q 0 0 4 0L 303 0Q 307 0 307 4L 307 146Q 307 150 303 150L 4 150Q 0 150 0 146Z" stroke="rgba(50,50,50,1)" stroke-width="2" fill-opacity="1" fill="#ffffff"></path><path id="SvgjsPath1080" d="M 0 32L 307 32" stroke="rgba(50,50,50,1)" stroke-width="2" fill="none"></path><path id="SvgjsPath1081" d="M 0 0L 307 0L 307 150L 0 150Z" stroke="none" fill="none"></path><g id="SvgjsG1082"><text id="SvgjsText1083" font-family="Arial" text-anchor="middle" font-size="13px" width="287px" fill="#323232" font-weight="700" align="middle" anchor="middle" family="Arial" size="13px" weight="700" font-style="" opacity="1" y="-1.95" transform="rotate(0)"><tspan id="SvgjsTspan1084" dy="16" x="153.5"><tspan id="SvgjsTspan1085" style="text-decoration:;">&lt;&lt;interface&gt;&gt;</tspan></tspan><tspan id="SvgjsTspan1086" dy="16" x="153.5"><tspan id="SvgjsTspan1087" style="text-decoration:;">Servlet</tspan></tspan></text></g><g id="SvgjsG1088"><text id="SvgjsText1089" font-family="Arial" text-anchor="start" font-size="13px" width="287px" fill="#323232" font-weight="400" align="middle" anchor="start" family="Arial" size="13px" weight="400" font-style="" opacity="1" y="65.05" transform="rotate(0)"><tspan id="SvgjsTspan1090" dy="16" x="10"><tspan id="SvgjsTspan1091" style="text-decoration:;">- init(ServletConfig)</tspan></tspan><tspan id="SvgjsTspan1092" dy="16" x="10"><tspan id="SvgjsTspan1093" style="text-decoration:;">- service(ServletRequest, ServletResponse)</tspan></tspan><tspan id="SvgjsTspan1094" dy="16" x="10"><tspan id="SvgjsTspan1095" style="text-decoration:;">- desctroy()</tspan></tspan></text></g></g><g id="SvgjsG1096" transform="translate(411,25)"><path id="SvgjsPath1097" d="M 0 4Q 0 0 4 0L 390 0Q 394 0 394 4L 394 146Q 394 150 390 150L 4 150Q 0 150 0 146Z" stroke="rgba(50,50,50,1)" stroke-width="2" fill-opacity="1" fill="#ffffff"></path><path id="SvgjsPath1098" d="M 0 32L 394 32" stroke="rgba(50,50,50,1)" stroke-width="2" fill="none"></path><path id="SvgjsPath1099" d="M 0 0L 394 0L 394 150L 0 150Z" stroke="none" fill="none"></path><g id="SvgjsG1100"><text id="SvgjsText1101" font-family="Arial" text-anchor="middle" font-size="13px" width="374px" fill="#323232" font-weight="700" align="middle" anchor="middle" family="Arial" size="13px" weight="700" font-style="" opacity="1" y="-1.95" transform="rotate(0)"><tspan id="SvgjsTspan1102" dy="16" x="197"><tspan id="SvgjsTspan1103" style="text-decoration:;">&lt;&lt;interface&gt;&gt;</tspan></tspan><tspan id="SvgjsTspan1104" dy="16" x="197"><tspan id="SvgjsTspan1105" style="text-decoration:;">ServletConfig</tspan></tspan></text></g><g id="SvgjsG1106"><text id="SvgjsText1107" font-family="Arial" text-anchor="start" font-size="13px" width="374px" fill="#323232" font-weight="400" align="middle" anchor="start" family="Arial" size="13px" weight="400" font-style="" opacity="1" y="57.05" transform="rotate(0)"><tspan id="SvgjsTspan1108" dy="16" x="10"><tspan id="SvgjsTspan1109" style="text-decoration:;">+ getServletContext():ServletContext</tspan></tspan><tspan id="SvgjsTspan1110" dy="16" x="10"><tspan id="SvgjsTspan1111" style="text-decoration:;">+ getInitParameter(String):String</tspan></tspan><tspan id="SvgjsTspan1112" dy="16" x="10"><tspan id="SvgjsTspan1113" style="text-decoration:;">+ getInitParameterNames():Enumeration&lt;String&gt;</tspan></tspan><tspan id="SvgjsTspan1114" dy="16" x="10"><tspan id="SvgjsTspan1115" style="text-decoration:;">+ getServletName():String</tspan></tspan></text></g></g><g id="SvgjsG1116" transform="translate(411,221)"><path id="SvgjsPath1117" d="M 0 4Q 0 0 4 0L 390 0Q 394 0 394 4L 394 146Q 394 150 390 150L 4 150Q 0 150 0 146Z" stroke="rgba(50,50,50,1)" stroke-width="2" fill-opacity="1" fill="#ffffff"></path><path id="SvgjsPath1118" d="M 0 32L 394 32" stroke="rgba(50,50,50,1)" stroke-width="2" fill="none"></path><path id="SvgjsPath1119" d="M 0 0L 394 0L 394 150L 0 150Z" stroke="none" fill="none"></path><g id="SvgjsG1120"><text id="SvgjsText1121" font-family="Arial" text-anchor="middle" font-size="13px" width="374px" fill="#323232" font-weight="700" align="middle" anchor="middle" family="Arial" size="13px" weight="700" font-style="" opacity="1" y="-1.95" transform="rotate(0)"><tspan id="SvgjsTspan1122" dy="16" x="197"><tspan id="SvgjsTspan1123" style="text-decoration:;">&lt;&lt;interface&gt;&gt;</tspan></tspan><tspan id="SvgjsTspan1124" dy="16" x="197"><tspan id="SvgjsTspan1125" style="text-decoration:;">ServletContext</tspan></tspan></text></g><g id="SvgjsG1126"><text id="SvgjsText1127" font-family="Arial" text-anchor="start" font-size="13px" width="374px" fill="#323232" font-weight="400" align="middle" anchor="start" family="Arial" size="13px" weight="400" font-style="" opacity="1" y="41.05" transform="rotate(0)"><tspan id="SvgjsTspan1128" dy="16" x="10"><tspan id="SvgjsTspan1129" style="text-decoration:;">+ getResource(String):URL</tspan></tspan><tspan id="SvgjsTspan1130" dy="16" x="10"><tspan id="SvgjsTspan1131" style="text-decoration:;">+ getInitParameter(String):String</tspan></tspan><tspan id="SvgjsTspan1132" dy="16" x="10"><tspan id="SvgjsTspan1133" style="text-decoration:;">- setInitParameter(String)</tspan></tspan><tspan id="SvgjsTspan1134" dy="16" x="10"><tspan id="SvgjsTspan1135" style="text-decoration:;">+ addServlet(String,String):ServletRegistration.Dynamic</tspan></tspan><tspan id="SvgjsTspan1136" dy="16" x="10"><tspan id="SvgjsTspan1137" style="text-decoration:;">+ addFilter(String,String):FilterRegistration.Dynamic</tspan></tspan><tspan id="SvgjsTspan1138" dy="16" x="10"><tspan id="SvgjsTspan1139" style="text-decoration:;">- addListener (String)</tspan></tspan></text></g></g><g id="SvgjsG1140"><path id="SvgjsPath1141" d="M332 98.93617021276596L411 98.93617021276596" stroke="#323232" stroke-width="2" fill="none" marker-start="url(#SvgjsMarker1142)"></path></g><g id="SvgjsG1144"><path id="SvgjsPath1145" d="M608 172.87234042553192L608 221" stroke="#323232" stroke-width="2" fill="none" marker-start="url(#SvgjsMarker1146)"></path></g><g id="SvgjsG1148"><path id="SvgjsPath1149" d="M178.5 175L411 296" stroke-dasharray="8,5" stroke="#323232" stroke-width="2" fill="none" marker-end="url(#SvgjsMarker1150)"></path></g></svg>