<svg id="SvgjsSvg1212" width="715" height="537" xmlns="http://www.w3.org/2000/svg" version="1.1" xmlns:xlink="http://www.w3.org/1999/xlink" xmlns:svgjs="http://svgjs.com/svgjs"><defs id="SvgjsDefs1213"><marker id="SvgjsMarker1216" markerWidth="16" markerHeight="12" refX="16" refY="6" viewBox="0 0 16 12" orient="auto" markerUnits="userSpaceOnUse"><path id="SvgjsPath1217" d="M0,2 L14,6 L0,11 L0,2" fill="#323232" stroke="#323232" stroke-width="2"></path></marker><marker id="SvgjsMarker1220" markerWidth="16" markerHeight="12" refX="16" refY="6" viewBox="0 0 16 12" orient="auto" markerUnits="userSpaceOnUse"><path id="SvgjsPath1221" d="M0,2 L14,6 L0,11 L0,2" fill="#323232" stroke="#323232" stroke-width="2"></path></marker><marker id="SvgjsMarker1253" markerWidth="16" markerHeight="12" refX="16" refY="6" viewBox="0 0 16 12" orient="auto" markerUnits="userSpaceOnUse"><path id="SvgjsPath1254" d="M0,2 L14,6 L0,11 L0,2" fill="#323232" stroke="#323232" stroke-width="2"></path></marker><marker id="SvgjsMarker1301" markerWidth="16" markerHeight="12" refX="16" refY="6" viewBox="0 0 16 12" orient="auto" markerUnits="userSpaceOnUse"><path id="SvgjsPath1302" d="M0,2 L14,6 L0,11 L0,2" fill="#323232" stroke="#323232" stroke-width="2"></path></marker></defs><g id="SvgjsG1214"><path id="SvgjsPath1215" d="M75 347L640.8296291314454 346.91997331835995" stroke="#323232" stroke-width="2" fill="none" marker-end="url(#SvgjsMarker1216)"></path></g><g id="SvgjsG1218"><path id="SvgjsPath1219" d="M409 196L73 195" stroke="#323232" stroke-width="2" fill="none" marker-end="url(#SvgjsMarker1220)"></path></g><g id="SvgjsG1222" transform="translate(145,182)"><path id="SvgjsPath1223" d="M 0 0L 212 0L 212 86L 0 86Z" stroke="#009900" stroke-width="2" fill-opacity="1" fill="#ffffff"></path><g id="SvgjsG1224"><text id="SvgjsText1225" font-family="Arial" text-anchor="middle" font-size="13px" width="0" fill="#00994d" font-weight="400" align="middle" anchor="middle" family="Arial" size="13px" weight="400" font-style="" y="33.05" transform="rotate(0)"></text></g></g><g id="SvgjsG1226" transform="translate(25,29)"><path id="SvgjsPath1227" d="M 35 30L 35 483" stroke-dasharray="3,4" stroke="#323232" stroke-width="2" fill="none"></path><path id="SvgjsPath1228" d="M 0 0L 70 0L 70 30L 0 30Z" stroke="#323232" stroke-width="2" fill-opacity="1" fill="#ffffff"></path><g id="SvgjsG1229"><text id="SvgjsText1230" font-family="Arial" text-anchor="middle" font-size="13px" width="28" fill="#323232" font-weight="400" align="middle" anchor="middle" family="Arial" size="13px" weight="400" font-style="" y="5.05" transform="rotate(0)"><tspan id="SvgjsTspan1231" dy="16" x="35"><tspan id="SvgjsTspan1232" style="text-decoration:;">Alice</tspan></tspan></text></g></g><g id="SvgjsG1233" transform="translate(620,25)"><path id="SvgjsPath1234" d="M 35 30L 35 482" stroke-dasharray="3,4" stroke="#323232" stroke-width="2" fill="none"></path><path id="SvgjsPath1235" d="M 0 0L 70 0L 70 30L 0 30Z" stroke="#323232" stroke-width="2" fill-opacity="1" fill="#ffffff"></path><g id="SvgjsG1236"><text id="SvgjsText1237" font-family="Arial" text-anchor="middle" font-size="13px" width="23" fill="#323232" font-weight="400" align="middle" anchor="middle" family="Arial" size="13px" weight="400" font-style="" y="5.05" transform="rotate(0)"><tspan id="SvgjsTspan1238" dy="16" x="35"><tspan id="SvgjsTspan1239" style="text-decoration:;">Bob</tspan></tspan></text></g></g><g id="SvgjsG1240" transform="translate(389,25)"><path id="SvgjsPath1241" d="M 35 30L 35 475" stroke-dasharray="3,4" stroke="#323232" stroke-width="2" fill="none"></path><path id="SvgjsPath1242" d="M 0 0L 70 0L 70 30L 0 30Z" stroke="#323232" stroke-width="2" fill-opacity="1" fill="#ffffff"></path><g id="SvgjsG1243"><text id="SvgjsText1244" font-family="Arial" text-anchor="middle" font-size="13px" width="27" fill="#323232" font-weight="400" align="middle" anchor="middle" family="Arial" size="13px" weight="400" font-style="" y="5.05" transform="rotate(0)"><tspan id="SvgjsTspan1245" dy="16" x="35"><tspan id="SvgjsTspan1246" style="text-decoration:;">KDC</tspan></tspan></text></g></g><g id="SvgjsG1247" transform="translate(45,96)"><path id="SvgjsPath1248" d="M 0 4Q 0 0 4 0L 26 0Q 30 0 30 4L 30 354Q 30 358 26 358L 4 358Q 0 358 0 354L 0 4Z" stroke="#323232" stroke-width="2" fill-opacity="1" fill="#ffffff"></path></g><g id="SvgjsG1249" transform="translate(409,96)"><path id="SvgjsPath1250" d="M 0 4Q 0 0 4 0L 26 0Q 30 0 30 4L 30 196Q 30 200 26 200L 4 200Q 0 200 0 196L 0 4Z" stroke="#323232" stroke-width="2" fill-opacity="1" fill="#ffffff"></path></g><g id="SvgjsG1251"><path id="SvgjsPath1252" d="M75 125L409 126" stroke="#323232" stroke-width="2" fill="none" marker-end="url(#SvgjsMarker1253)"></path></g><g id="SvgjsG1255" transform="translate(145,217)"><path id="SvgjsPath1256" d="M 0 0L 69 0L 69 30L 0 30Z" stroke="none" fill="none"></path><g id="SvgjsG1257"><text id="SvgjsText1258" font-family="Arial" text-anchor="middle" font-size="13px" width="23" fill="#00994d" font-weight="400" align="middle" anchor="middle" family="Arial" size="13px" weight="400" font-style="" y="5.05" transform="rotate(0)"><tspan id="SvgjsTspan1259" dy="16" x="34.5"><tspan id="SvgjsTspan1260" style="text-decoration:;">Kab</tspan></tspan></text></g></g><g id="SvgjsG1261" transform="translate(187,99)"><path id="SvgjsPath1262" d="M 0 0L 90.5 0L 90.5 40L 0 40Z" stroke="#323232" stroke-width="2" fill-opacity="1" fill="#ffffff"></path><g id="SvgjsG1263"><text id="SvgjsText1264" font-family="Arial" text-anchor="middle" font-size="13px" width="25" fill="#323232" font-weight="400" align="middle" anchor="middle" family="Arial" size="13px" weight="400" font-style="" y="10.05" transform="rotate(0)"><tspan id="SvgjsTspan1265" dy="16" x="45.5"><tspan id="SvgjsTspan1266" style="text-decoration:;">A, B</tspan></tspan></text></g></g><g id="SvgjsG1267" transform="translate(219.5,210)"><path id="SvgjsPath1268" d="M 0 0L 118.5 0L 118.5 40L 0 40Z" stroke="#66b2ff" stroke-width="2" fill-opacity="1" fill="#ffffff"></path><g id="SvgjsG1269"><text id="SvgjsText1270" font-family="Arial" text-anchor="middle" font-size="13px" width="54" fill="#3399ff" font-weight="400" align="middle" anchor="middle" family="Arial" size="13px" weight="400" font-style="" y="10.05" transform="rotate(0)"><tspan id="SvgjsTspan1271" dy="16" x="59.5"><tspan id="SvgjsTspan1272" style="text-decoration:;">Kab, A, B</tspan></tspan></text></g></g><g id="SvgjsG1273" transform="translate(201,197)"><path id="SvgjsPath1274" d="M 0 0L 47 0L 47 28L 0 28Z" stroke="#66b2ff" stroke-width="2" fill-opacity="1" fill="#ffffff"></path><g id="SvgjsG1275"><text id="SvgjsText1276" font-family="Arial" text-anchor="middle" font-size="13px" width="16" fill="#3399ff" font-weight="400" align="middle" anchor="middle" family="Arial" size="13px" weight="400" font-style="" y="4.05" transform="rotate(0)"><tspan id="SvgjsTspan1277" dy="16" x="23.5"><tspan id="SvgjsTspan1278" style="text-decoration:;">Kb</tspan></tspan></text></g></g><g id="SvgjsG1279" transform="translate(135,169)"><path id="SvgjsPath1280" d="M 0 0L 47 0L 47 28L 0 28Z" stroke="#009900" stroke-width="2" fill-opacity="1" fill="#ffffff"></path><g id="SvgjsG1281"><text id="SvgjsText1282" font-family="Arial" text-anchor="middle" font-size="13px" width="16" fill="#00994d" font-weight="400" align="middle" anchor="middle" family="Arial" size="13px" weight="400" font-style="" y="4.05" transform="rotate(0)"><tspan id="SvgjsTspan1283" dy="16" x="23.5"><tspan id="SvgjsTspan1284" style="text-decoration:;">Ka</tspan></tspan></text></g></g><g id="SvgjsG1285" transform="translate(640,343)"><path id="SvgjsPath1286" d="M 0 4Q 0 0 4 0L 26 0Q 30 0 30 4L 30 115Q 30 119 26 119L 4 119Q 0 119 0 115L 0 4Z" stroke="#323232" stroke-width="2" fill-opacity="1" fill="#ffffff"></path></g><g id="SvgjsG1287" transform="translate(238,319)"><path id="SvgjsPath1288" d="M 0 0L 118.5 0L 118.5 40L 0 40Z" stroke="#66b2ff" stroke-width="2" fill-opacity="1" fill="#ffffff"></path><g id="SvgjsG1289"><text id="SvgjsText1290" font-family="Arial" text-anchor="middle" font-size="13px" width="54" fill="#3399ff" font-weight="400" align="middle" anchor="middle" family="Arial" size="13px" weight="400" font-style="" y="10.05" transform="rotate(0)"><tspan id="SvgjsTspan1291" dy="16" x="59.5"><tspan id="SvgjsTspan1292" style="text-decoration:;">Kab, A, B</tspan></tspan></text></g></g><g id="SvgjsG1293" transform="translate(219.5,306)"><path id="SvgjsPath1294" d="M 0 0L 47 0L 47 28L 0 28Z" stroke="#66b2ff" stroke-width="2" fill-opacity="1" fill="#ffffff"></path><g id="SvgjsG1295"><text id="SvgjsText1296" font-family="Arial" text-anchor="middle" font-size="13px" width="16" fill="#3399ff" font-weight="400" align="middle" anchor="middle" family="Arial" size="13px" weight="400" font-style="" y="4.05" transform="rotate(0)"><tspan id="SvgjsTspan1297" dy="16" x="23.5"><tspan id="SvgjsTspan1298" style="text-decoration:;">Kb</tspan></tspan></text></g></g><g id="SvgjsG1299"><path id="SvgjsPath1300" d="M75 437L640 436" stroke="#323232" stroke-width="2" fill="none" marker-end="url(#SvgjsMarker1301)"></path></g><g id="SvgjsG1303" transform="translate(238,409)"><path id="SvgjsPath1304" d="M 0 0L 118.5 0L 118.5 40L 0 40Z" stroke="#ffb366" stroke-width="2" fill-opacity="1" fill="#ffffff"></path><g id="SvgjsG1305"><text id="SvgjsText1306" font-family="Arial" text-anchor="middle" font-size="13px" width="49" fill="#ffb366" font-weight="400" align="middle" anchor="middle" family="Arial" size="13px" weight="400" font-style="" y="10.05" transform="rotate(0)"><tspan id="SvgjsTspan1307" dy="16" x="59.5"><tspan id="SvgjsTspan1308" style="text-decoration:;">blablab..</tspan></tspan></text></g></g><g id="SvgjsG1309" transform="translate(219.5,396)"><path id="SvgjsPath1310" d="M 0 0L 47 0L 47 28L 0 28Z" stroke="#ffb366" stroke-width="2" fill-opacity="1" fill="#ffffff"></path><g id="SvgjsG1311"><text id="SvgjsText1312" font-family="Arial" text-anchor="middle" font-size="13px" width="23" fill="#ffb366" font-weight="400" align="middle" anchor="middle" family="Arial" size="13px" weight="400" font-style="" y="4.05" transform="rotate(0)"><tspan id="SvgjsTspan1313" dy="16" x="23.5"><tspan id="SvgjsTspan1314" style="text-decoration:;">Kab</tspan></tspan></text></g></g><g id="SvgjsG1315" transform="translate(471,36)"><path id="SvgjsPath1316" d="M 0 0L 113 0L 129 16L 129 82L 0 82L 0 0Z" stroke="none" fill-opacity="1" fill="#ffffaa"></path><path id="SvgjsPath1317" d="M 113 0L 113 16L 129 16Z" stroke="none" fill-opacity="1" fill="#cdcdcd"></path><path id="SvgjsPath1318" d="M 0 0L 113 0L 129 16L 129 82L 0 82L 0 0Z" stroke="none" fill="none"></path><g id="SvgjsG1319"><text id="SvgjsText1320" font-family="Arial" text-anchor="start" font-size="13px" width="105" fill="#323232" font-weight="400" align="middle" anchor="start" family="Arial" size="13px" weight="400" font-style="" y="15.05" transform="rotate(0)"><tspan id="SvgjsTspan1321" dy="16" x="10"><tspan id="SvgjsTspan1322" style="text-decoration:;">在 KDC 已经注册</tspan></tspan><tspan id="SvgjsTspan1323" dy="16" x="10"><tspan id="SvgjsTspan1324" style="text-decoration:;">了 Alice 和 Bob 的</tspan></tspan><tspan id="SvgjsTspan1325" dy="16" x="10"><tspan id="SvgjsTspan1326" style="text-decoration:;">主密钥 Ka 和 Kb</tspan></tspan></text></g></g></svg>