<svg id="SvgjsSvg1006" width="1030" height="600.0124969482422" xmlns="http://www.w3.org/2000/svg" version="1.1" xmlns:xlink="http://www.w3.org/1999/xlink" xmlns:svgjs="http://svgjs.com/svgjs"><defs id="SvgjsDefs1007"><marker id="SvgjsMarker1026" markerWidth="16" markerHeight="12" refX="16" refY="6" viewBox="0 0 16 12" orient="auto" markerUnits="userSpaceOnUse"><path id="SvgjsPath1027" d="M0,2 L14,6 L0,11 L0,2" fill="#323232" stroke="#323232" stroke-width="2"></path></marker><marker id="SvgjsMarker1030" markerWidth="16" markerHeight="12" refX="16" refY="6" viewBox="0 0 16 12" orient="auto" markerUnits="userSpaceOnUse"><path id="SvgjsPath1031" d="M0,2 L14,6 L0,11 L0,2" fill="#323232" stroke="#323232" stroke-width="2"></path></marker><marker id="SvgjsMarker1046" markerWidth="16" markerHeight="12" refX="16" refY="6" viewBox="0 0 16 12" orient="auto" markerUnits="userSpaceOnUse"><path id="SvgjsPath1047" d="M0,2 L14,6 L0,11 L0,2" fill="#323232" stroke="#323232" stroke-width="2"></path></marker><marker id="SvgjsMarker1064" markerWidth="16" markerHeight="12" refX="16" refY="6" viewBox="0 0 16 12" orient="auto" markerUnits="userSpaceOnUse"><path id="SvgjsPath1065" d="M0,2 L14,6 L0,11 L0,2" fill="#323232" stroke="#323232" stroke-width="2"></path></marker><marker id="SvgjsMarker1082" markerWidth="16" markerHeight="12" refX="16" refY="6" viewBox="0 0 16 12" orient="auto" markerUnits="userSpaceOnUse"><path id="SvgjsPath1083" d="M0,2 L14,6 L0,11 L0,2" fill="#323232" stroke="#323232" stroke-width="2"></path></marker><marker id="SvgjsMarker1086" markerWidth="16" markerHeight="12" refX="16" refY="6" viewBox="0 0 16 12" orient="auto" markerUnits="userSpaceOnUse"><path id="SvgjsPath1087" d="M0,2 L14,6 L0,11 L0,2" fill="#323232" stroke="#323232" stroke-width="2"></path></marker><marker id="SvgjsMarker1104" markerWidth="16" markerHeight="12" refX="16" refY="6" viewBox="0 0 16 12" orient="auto" markerUnits="userSpaceOnUse"><path id="SvgjsPath1105" d="M0,2 L14,6 L0,11 L0,2" fill="#323232" stroke="#323232" stroke-width="2"></path></marker></defs><g id="SvgjsG1008" transform="translate(25.000015258789062,25.01250457763672)"><path id="SvgjsPath1009" d="M 0 0L 980 0L 980 550.0000038146973L 0 550.0000038146973Z" stroke="#323232" stroke-width="1" fill-opacity="1" fill="#ffffff"></path><g id="SvgjsG1010"><text id="SvgjsText1011" font-family="微软雅黑" text-anchor="middle" font-size="13px" width="0" fill="#323232" font-weight="400" align="middle" anchor="middle" family="微软雅黑" size="13px" weight="400" font-style="" y="265.05000190734864" transform="rotate(0)"></text></g></g><g id="SvgjsG1012" transform="translate(215.60000610351562,162.01250457763672)"><path id="SvgjsPath1013" d="M 0 20C 0 -6.666666666666667 40 -6.666666666666667 40 20C 40 46.666666666666664 0 46.666666666666664 0 20Z" stroke="none" fill-opacity="1" fill="#323232"></path><g id="SvgjsG1014"><text id="SvgjsText1015" font-family="Arial" text-anchor="middle" font-size="13px" width="0" fill="#323232" font-weight="400" align="middle" anchor="middle" family="Arial" size="13px" weight="400" font-style="" y="45.05" transform="rotate(0)"></text></g></g><g id="SvgjsG1016" transform="translate(322.00001525878906,147.01250457763672)"><path id="SvgjsPath1017" d="M 0 18Q 0 0 18 0L 95 0Q 113 0 113 18L 113 52Q 113 70 95 70L 18 70Q 0 70 0 52L 0 18Z" stroke="#323232" stroke-width="2" fill-opacity="1" fill="#ffffff"></path><g id="SvgjsG1018"><text id="SvgjsText1019" font-family="Arial" text-anchor="middle" font-size="13px" width="78" fill="#323232" font-weight="400" align="middle" anchor="middle" family="Arial" size="13px" weight="400" font-style="" y="17.05" transform="rotate(0)"><tspan id="SvgjsTspan1020" dy="16" x="56.5"><tspan id="SvgjsTspan1021" style="text-decoration:;">Wait for call 0 </tspan></tspan><tspan id="SvgjsTspan1022" dy="16" x="56.5"><tspan id="SvgjsTspan1023" style="text-decoration:;">from above</tspan></tspan></text></g></g><g id="SvgjsG1024"><path id="SvgjsPath1025" d="M255.60000610351562 182.01250457763672L322.00001525878906 182.01250457763672" stroke="#323232" stroke-width="2" fill="none" marker-end="url(#SvgjsMarker1026)"></path></g><g id="SvgjsG1028"><path id="SvgjsPath1029" d="M378.50001525878906 147.01250457763672C 378.50001525878906 45.97250823974609 631.1000061035156 45.97250823974609 631.1000061035156 147.01250457763672" stroke="#323232" stroke-width="2" fill="none" marker-end="url(#SvgjsMarker1030)"></path></g><g id="SvgjsG1032" transform="translate(422.30001068115234,535.012508392334)"><path id="SvgjsPath1033" d="M 0 0L 160 0L 160 40L 0 40Z" stroke="none" fill="none"></path><g id="SvgjsG1034"><text id="SvgjsText1035" font-family="微软雅黑" text-anchor="middle" font-size="13px" width="136" fill="#323232" font-weight="700" align="middle" anchor="middle" family="微软雅黑" size="13px" weight="700" font-style="" y="10.05" transform="rotate(0)"><tspan id="SvgjsTspan1036" dy="16" x="80"><tspan id="SvgjsTspan1037" style="text-decoration:;">RDT 2.1 - 发送方 FSM</tspan></tspan></text></g></g><g id="SvgjsG1038" transform="translate(574.6000061035156,147.01250457763672)"><path id="SvgjsPath1039" d="M 0 18Q 0 0 18 0L 95 0Q 113 0 113 18L 113 52Q 113 70 95 70L 18 70Q 0 70 0 52L 0 18Z" stroke="#323232" stroke-width="2" fill-opacity="1" fill="#ffffff"></path><g id="SvgjsG1040"><text id="SvgjsText1041" font-family="Arial" text-anchor="middle" font-size="13px" width="85" fill="#323232" font-weight="400" align="middle" anchor="middle" family="Arial" size="13px" weight="400" font-style="" y="25.05" transform="rotate(0)"><tspan id="SvgjsTspan1042" dy="16" x="56.5"><tspan id="SvgjsTspan1043" style="text-decoration:;">Wait for ACK 0</tspan></tspan></text></g></g><g id="SvgjsG1044"><path id="SvgjsPath1045" d="M631.1000061035156 217.01250457763672L631.1000061035156 354.0125045776367" stroke="#323232" stroke-width="2" fill="none" marker-end="url(#SvgjsMarker1046)"></path></g><g id="SvgjsG1048" transform="translate(376.4000015258789,44.01250457763672)"><path id="SvgjsPath1049" d="M 0 4Q 0 0 4 0L 253.2000274658203 0Q 257.2000274658203 0 257.2000274658203 4L 257.2000274658203 67Q 257.2000274658203 71 253.2000274658203 71L 4 71Q 0 71 0 67Z" stroke-dasharray="10,6" stroke="#323232" stroke-width="1" fill-opacity="1" fill="#ffffff"></path><path id="SvgjsPath1050" d="M 0 30L 257.2000274658203 30" stroke-dasharray="10,6" stroke="#323232" stroke-width="1" fill="none"></path><path id="SvgjsPath1051" d="M 0 0L 257.2000274658203 0L 257.2000274658203 71L 0 71Z" stroke="none" fill="none"></path><g id="SvgjsG1052"><text id="SvgjsText1053" font-family="Arial" text-anchor="start" font-size="13px" width="94" fill="#000000" font-weight="700" align="middle" anchor="start" family="Arial" size="13px" weight="700" font-style="" y="5.05" transform="rotate(0)"><tspan id="SvgjsTspan1054" dy="16" x="10"><tspan id="SvgjsTspan1055" style="text-decoration:;">rdt_send (data)</tspan></tspan></text></g><g id="SvgjsG1056"><text id="SvgjsText1057" font-family="Arial" text-anchor="start" font-size="13px" width="220" fill="#000000" font-weight="400" align="middle" anchor="start" family="Arial" size="13px" weight="400" font-style="" y="32.55" transform="rotate(0)"><tspan id="SvgjsTspan1058" dy="16" x="10"><tspan id="SvgjsTspan1059" style="text-decoration:;">packet=make_pkt (0, data, checksum)</tspan></tspan><tspan id="SvgjsTspan1060" dy="16" x="10"><tspan id="SvgjsTspan1061" style="text-decoration:;">udt_send (packet)</tspan></tspan></text></g></g><g id="SvgjsG1062"><path id="SvgjsPath1063" d="M682.585801696416 151.42671814000983C 769.0000152587891 125.01250457763672 766.0000152587891 241.01250457763672 682.7573745716697 211.7698638905174" stroke="#323232" stroke-width="2" fill="none" marker-end="url(#SvgjsMarker1064)"></path></g><g id="SvgjsG1066" transform="translate(574.6000061035156,354.0125045776367)"><path id="SvgjsPath1067" d="M 0 18Q 0 0 18 0L 95 0Q 113 0 113 18L 113 52Q 113 70 95 70L 18 70Q 0 70 0 52L 0 18Z" stroke="#323232" stroke-width="2" fill-opacity="1" fill="#ffffff"></path><g id="SvgjsG1068"><text id="SvgjsText1069" font-family="Arial" text-anchor="middle" font-size="13px" width="78" fill="#323232" font-weight="400" align="middle" anchor="middle" family="Arial" size="13px" weight="400" font-style="" y="17.05" transform="rotate(0)"><tspan id="SvgjsTspan1070" dy="16" x="56.5"><tspan id="SvgjsTspan1071" style="text-decoration:;">Wait for call 1 </tspan></tspan><tspan id="SvgjsTspan1072" dy="16" x="56.5"><tspan id="SvgjsTspan1073" style="text-decoration:;">from above</tspan></tspan></text></g></g><g id="SvgjsG1074" transform="translate(322.00001525878906,354.0125045776367)"><path id="SvgjsPath1075" d="M 0 18Q 0 0 18 0L 95 0Q 113 0 113 18L 113 52Q 113 70 95 70L 18 70Q 0 70 0 52L 0 18Z" stroke="#323232" stroke-width="2" fill-opacity="1" fill="#ffffff"></path><g id="SvgjsG1076"><text id="SvgjsText1077" font-family="Arial" text-anchor="middle" font-size="13px" width="85" fill="#323232" font-weight="400" align="middle" anchor="middle" family="Arial" size="13px" weight="400" font-style="" y="25.05" transform="rotate(0)"><tspan id="SvgjsTspan1078" dy="16" x="56.5"><tspan id="SvgjsTspan1079" style="text-decoration:;">Wait for ACK 1</tspan></tspan></text></g></g><g id="SvgjsG1080"><path id="SvgjsPath1081" d="M378.50001525878906 354.0125045776367L378.50001525878906 285.5125045776367L378.50001525878906 285.5125045776367L378.50001525878906 217.01250457763672" stroke="#323232" stroke-width="2" fill="none" marker-end="url(#SvgjsMarker1082)"></path></g><g id="SvgjsG1084"><path id="SvgjsPath1085" d="M326.4414738768953 419.09759231190276C 244.00001525878906 450.0125045776367 238.00001525878906 334.0125045776367 326.59628191750295 358.86923023575594" stroke="#323232" stroke-width="2" fill="none" marker-end="url(#SvgjsMarker1086)"></path></g><g id="SvgjsG1088" transform="translate(51.400001525878906,405.5125045776367)"><path id="SvgjsPath1089" d="M 0 4Q 0 0 4 0L 249.60001373291016 0Q 253.60001373291016 0 253.60001373291016 4L 253.60001373291016 72.5Q 253.60001373291016 76.5 249.60001373291016 76.5L 4 76.5Q 0 76.5 0 72.5Z" stroke-dasharray="10,6" stroke="#323232" stroke-width="1" fill-opacity="1" fill="#ffffff"></path><path id="SvgjsPath1090" d="M 0 32L 253.60001373291016 32" stroke-dasharray="10,6" stroke="#323232" stroke-width="1" fill="none"></path><path id="SvgjsPath1091" d="M 0 0L 253.60001373291016 0L 253.60001373291016 76.5L 0 76.5Z" stroke="none" fill="none"></path><g id="SvgjsG1092"><text id="SvgjsText1093" font-family="Arial" text-anchor="start" font-size="13px" width="216" fill="#000000" font-weight="700" align="middle" anchor="start" family="Arial" size="13px" weight="700" font-style="" y="-1.95" transform="rotate(0)"><tspan id="SvgjsTspan1094" dy="16" x="10"><tspan id="SvgjsTspan1095" style="text-decoration:;">rdt_rcv (rcvpkt) &amp;&amp; </tspan></tspan><tspan id="SvgjsTspan1096" dy="16" x="10"><tspan id="SvgjsTspan1097" style="text-decoration:;">(corrupt (rcvpk) || isACK(rcvpkt, 0))</tspan></tspan></text></g><g id="SvgjsG1098"><text id="SvgjsText1099" font-family="Arial" text-anchor="start" font-size="13px" width="104" fill="#000000" font-weight="400" align="middle" anchor="start" family="Arial" size="13px" weight="400" font-style="" y="44.3" transform="rotate(0)"><tspan id="SvgjsTspan1100" dy="16" x="10"><tspan id="SvgjsTspan1101" style="text-decoration:;">udt_send (packet)</tspan></tspan></text></g></g><g id="SvgjsG1102"><path id="SvgjsPath1103" d="M631.1000061035156 424.0125045776367C 631.1000061035156 525.0525009155274 378.50001525878906 525.0525009155274 378.50001525878906 424.0125045776367" stroke="#323232" stroke-width="2" fill="none" marker-end="url(#SvgjsMarker1104)"></path></g><g id="SvgjsG1106" transform="translate(376.4000015258789,459.0125045776367)"><path id="SvgjsPath1107" d="M 0 4Q 0 0 4 0L 253.2000274658203 0Q 257.2000274658203 0 257.2000274658203 4L 257.2000274658203 58Q 257.2000274658203 62 253.2000274658203 62L 4 62Q 0 62 0 58Z" stroke-dasharray="10,6" stroke="#323232" stroke-width="1" fill-opacity="1" fill="#ffffff"></path><path id="SvgjsPath1108" d="M 0 30L 257.2000274658203 30" stroke-dasharray="10,6" stroke="#323232" stroke-width="1" fill="none"></path><path id="SvgjsPath1109" d="M 0 0L 257.2000274658203 0L 257.2000274658203 62L 0 62Z" stroke="none" fill="none"></path><g id="SvgjsG1110"><text id="SvgjsText1111" font-family="Arial" text-anchor="start" font-size="13px" width="94" fill="#000000" font-weight="700" align="middle" anchor="start" family="Arial" size="13px" weight="700" font-style="" y="5.05" transform="rotate(0)"><tspan id="SvgjsTspan1112" dy="16" x="10"><tspan id="SvgjsTspan1113" style="text-decoration:;">rdt_send (data)</tspan></tspan></text></g><g id="SvgjsG1114"><text id="SvgjsText1115" font-family="Arial" text-anchor="start" font-size="13px" width="220" fill="#000000" font-weight="400" align="middle" anchor="start" family="Arial" size="13px" weight="400" font-style="" y="28.05" transform="rotate(0)"><tspan id="SvgjsTspan1116" dy="16" x="10"><tspan id="SvgjsTspan1117" style="text-decoration:;">packet=make_pkt (1, data, checksum)</tspan></tspan><tspan id="SvgjsTspan1118" dy="16" x="10"><tspan id="SvgjsTspan1119" style="text-decoration:;">udt_send (packet)</tspan></tspan></text></g></g><g id="SvgjsG1120" transform="translate(728.4000015258789,101.51250457763672)"><path id="SvgjsPath1121" d="M 0 4Q 0 0 4 0L 249.60001373291016 0Q 253.60001373291016 0 253.60001373291016 4L 253.60001373291016 88.5Q 253.60001373291016 92.5 249.60001373291016 92.5L 4 92.5Q 0 92.5 0 88.5Z" stroke-dasharray="10,6" stroke="#323232" stroke-width="1" fill-opacity="1" fill="#ffffff"></path><path id="SvgjsPath1122" d="M 0 48L 253.60001373291016 48" stroke-dasharray="10,6" stroke="#323232" stroke-width="1" fill="none"></path><path id="SvgjsPath1123" d="M 0 0L 253.60001373291016 0L 253.60001373291016 92.5L 0 92.5Z" stroke="none" fill="none"></path><g id="SvgjsG1124"><text id="SvgjsText1125" font-family="Arial" text-anchor="start" font-size="13px" width="216" fill="#000000" font-weight="700" align="middle" anchor="start" family="Arial" size="13px" weight="700" font-style="" y="6.05" transform="rotate(0)"><tspan id="SvgjsTspan1126" dy="16" x="10"><tspan id="SvgjsTspan1127" style="text-decoration:;">rdt_rcv (rcvpkt) &amp;&amp; </tspan></tspan><tspan id="SvgjsTspan1128" dy="16" x="10"><tspan id="SvgjsTspan1129" style="text-decoration:;">(corrupt (rcvpk) || isACK(rcvpkt, 1))</tspan></tspan></text></g><g id="SvgjsG1130"><text id="SvgjsText1131" font-family="Arial" text-anchor="start" font-size="13px" width="104" fill="#000000" font-weight="400" align="middle" anchor="start" family="Arial" size="13px" weight="400" font-style="" y="60.3" transform="rotate(0)"><tspan id="SvgjsTspan1132" dy="16" x="10"><tspan id="SvgjsTspan1133" style="text-decoration:;">udt_send (packet)</tspan></tspan></text></g></g><g id="SvgjsG1134" transform="translate(146.00001525878906,248.76250648498535)"><path id="SvgjsPath1135" d="M 0 4Q 0 0 4 0L 255.60001373291016 0Q 259.60001373291016 0 259.60001373291016 4L 259.60001373291016 63.24999809265137Q 259.60001373291016 67.24999809265137 255.60001373291016 67.24999809265137L 4 67.24999809265137Q 0 67.24999809265137 0 63.24999809265137Z" stroke-dasharray="10,6" stroke="#323232" stroke-width="1" fill-opacity="1" fill="#ffffff"></path><path id="SvgjsPath1136" d="M 0 48L 259.60001373291016 48" stroke-dasharray="10,6" stroke="#323232" stroke-width="1" fill="none"></path><path id="SvgjsPath1137" d="M 0 0L 259.60001373291016 0L 259.60001373291016 67.24999809265137L 0 67.24999809265137Z" stroke="none" fill="none"></path><g id="SvgjsG1138"><text id="SvgjsText1139" font-family="Arial" text-anchor="start" font-size="13px" width="135" fill="#000000" font-weight="700" align="middle" anchor="start" family="Arial" size="13px" weight="700" font-style="" y="-1.95" transform="rotate(0)"><tspan id="SvgjsTspan1140" dy="16" x="10"><tspan id="SvgjsTspan1141" style="text-decoration:;">rdt_rcv (rcvpkt) </tspan></tspan><tspan id="SvgjsTspan1142" dy="16" x="10"><tspan id="SvgjsTspan1143" style="text-decoration:;">&amp;&amp; notcorrupt (rcvpk) </tspan></tspan><tspan id="SvgjsTspan1144" dy="16" x="10"><tspan id="SvgjsTspan1145" style="text-decoration:;">&amp;&amp; isACK(rcvpkt, 1))</tspan></tspan></text></g><g id="SvgjsG1146"><text id="SvgjsText1147" font-family="Arial" text-anchor="start" font-size="13px" width="0" fill="#000000" font-weight="400" align="middle" anchor="start" family="Arial" size="13px" weight="400" font-style="" y="47.67499904632568" transform="rotate(0)"></text></g></g><g id="SvgjsG1148" transform="translate(603.4000015258789,248.76250648498535)"><path id="SvgjsPath1149" d="M 0 4Q 0 0 4 0L 255.60001373291016 0Q 259.60001373291016 0 259.60001373291016 4L 259.60001373291016 63.24999809265137Q 259.60001373291016 67.24999809265137 255.60001373291016 67.24999809265137L 4 67.24999809265137Q 0 67.24999809265137 0 63.24999809265137Z" stroke-dasharray="10,6" stroke="#323232" stroke-width="1" fill-opacity="1" fill="#ffffff"></path><path id="SvgjsPath1150" d="M 0 48L 259.60001373291016 48" stroke-dasharray="10,6" stroke="#323232" stroke-width="1" fill="none"></path><path id="SvgjsPath1151" d="M 0 0L 259.60001373291016 0L 259.60001373291016 67.24999809265137L 0 67.24999809265137Z" stroke="none" fill="none"></path><g id="SvgjsG1152"><text id="SvgjsText1153" font-family="Arial" text-anchor="start" font-size="13px" width="135" fill="#000000" font-weight="700" align="middle" anchor="start" family="Arial" size="13px" weight="700" font-style="" y="-1.95" transform="rotate(0)"><tspan id="SvgjsTspan1154" dy="16" x="10"><tspan id="SvgjsTspan1155" style="text-decoration:;">rdt_rcv (rcvpkt) </tspan></tspan><tspan id="SvgjsTspan1156" dy="16" x="10"><tspan id="SvgjsTspan1157" style="text-decoration:;">&amp;&amp; notcorrupt (rcvpk) </tspan></tspan><tspan id="SvgjsTspan1158" dy="16" x="10"><tspan id="SvgjsTspan1159" style="text-decoration:;">&amp;&amp; isACK(rcvpkt, 0))</tspan></tspan></text></g><g id="SvgjsG1160"><text id="SvgjsText1161" font-family="Arial" text-anchor="start" font-size="13px" width="0" fill="#000000" font-weight="400" align="middle" anchor="start" family="Arial" size="13px" weight="400" font-style="" y="47.67499904632568" transform="rotate(0)"></text></g></g></svg>