<svg id="SvgjsSvg1006" width="1099" height="478" xmlns="http://www.w3.org/2000/svg" version="1.1" xmlns:xlink="http://www.w3.org/1999/xlink" xmlns:svgjs="http://svgjs.com/svgjs"><defs id="SvgjsDefs1007"><marker id="SvgjsMarker1026" markerWidth="16" markerHeight="12" refX="16" refY="6" viewBox="0 0 16 12" orient="auto" markerUnits="userSpaceOnUse"><path id="SvgjsPath1027" d="M0,2 L14,6 L0,11 L0,2" fill="#00994d" stroke="#00994d" stroke-width="2"></path></marker><marker id="SvgjsMarker1030" markerWidth="16" markerHeight="12" refX="16" refY="6" viewBox="0 0 16 12" orient="auto" markerUnits="userSpaceOnUse"><path id="SvgjsPath1031" d="M0,2 L14,6 L0,11 L0,2" fill="#00994d" stroke="#00994d" stroke-width="2"></path></marker><marker id="SvgjsMarker1040" markerWidth="16" markerHeight="12" refX="16" refY="6" viewBox="0 0 16 12" orient="auto" markerUnits="userSpaceOnUse"><path id="SvgjsPath1041" d="M0,2 L14,6 L0,11 L0,2" fill="#00994d" stroke="#00994d" stroke-width="2"></path></marker><marker id="SvgjsMarker1070" markerWidth="16" markerHeight="12" refX="16" refY="6" viewBox="0 0 16 12" orient="auto" markerUnits="userSpaceOnUse"><path id="SvgjsPath1071" d="M0,2 L14,6 L0,11 L0,2" fill="#00994d" stroke="#00994d" stroke-width="2"></path></marker><marker id="SvgjsMarker1108" markerWidth="16" markerHeight="12" refX="16" refY="6" viewBox="0 0 16 12" orient="auto" markerUnits="userSpaceOnUse"><path id="SvgjsPath1109" d="M0,2 L14,6 L0,11 L0,2" fill="#00994d" stroke="#00994d" stroke-width="2"></path></marker></defs><g id="SvgjsG1008" transform="translate(25.012481689453125,25.00000762939453)"><path id="SvgjsPath1009" d="M 0 0L 1049 0L 1049 427.9999942779541L 0 427.9999942779541Z" stroke="#00994d" stroke-width="1" fill-opacity="1" fill="#ffffff"></path><g id="SvgjsG1010"><text id="SvgjsText1011" font-family="微软雅黑" text-anchor="middle" font-size="13px" width="0" fill="#323232" font-weight="400" align="middle" anchor="middle" family="微软雅黑" size="13px" weight="400" font-style="" y="204.04999713897706" transform="rotate(0)"></text></g></g><g id="SvgjsG1012" transform="translate(270.0124969482422,97)"><path id="SvgjsPath1013" d="M 0 20C 0 -6.666666666666667 40 -6.666666666666667 40 20C 40 46.666666666666664 0 46.666666666666664 0 20Z" stroke="none" fill-opacity="1" fill="#323232"></path><g id="SvgjsG1014"><text id="SvgjsText1015" font-family="Arial" text-anchor="middle" font-size="13px" width="0" fill="#00994d" font-weight="400" align="middle" anchor="middle" family="Arial" size="13px" weight="400" font-style="" y="45.05" transform="rotate(0)"></text></g></g><g id="SvgjsG1016" transform="translate(365.4125061035156,191)"><path id="SvgjsPath1017" d="M 0 18Q 0 0 18 0L 95 0Q 113 0 113 18L 113 52Q 113 70 95 70L 18 70Q 0 70 0 52L 0 18Z" stroke="#00994d" stroke-width="2" fill-opacity="1" fill="#ffffff"></path><g id="SvgjsG1018"><text id="SvgjsText1019" font-family="Arial" text-anchor="middle" font-size="13px" width="78" fill="#00994d" font-weight="400" align="middle" anchor="middle" family="Arial" size="13px" weight="400" font-style="" y="17.05" transform="rotate(0)"><tspan id="SvgjsTspan1020" dy="16" x="56.5"><tspan id="SvgjsTspan1021" style="text-decoration:;">Wait for call 0 </tspan></tspan><tspan id="SvgjsTspan1022" dy="16" x="56.5"><tspan id="SvgjsTspan1023" style="text-decoration:;">from below</tspan></tspan></text></g></g><g id="SvgjsG1024"><path id="SvgjsPath1025" d="M302.70538406354 130.29289321881345L371.2692165028458 194.59626665871386" stroke="#00994d" stroke-width="2" fill="none" marker-end="url(#SvgjsMarker1026)"></path></g><g id="SvgjsG1028"><path id="SvgjsPath1029" d="M421.9125061035156 191C 421.9125061035157 86.6 682.9125061035156 86.6 682.9125061035156 191" stroke="#00994d" stroke-width="2" fill="none" marker-end="url(#SvgjsMarker1030)"></path></g><g id="SvgjsG1032" transform="translate(490.9124984741211,413.00000190734863)"><path id="SvgjsPath1033" d="M 0 0L 160 0L 160 40L 0 40Z" stroke="none" fill="none"></path><g id="SvgjsG1034"><text id="SvgjsText1035" font-family="微软雅黑" text-anchor="middle" font-size="13px" width="136" fill="#00994d" font-weight="700" align="middle" anchor="middle" family="微软雅黑" size="13px" weight="700" font-style="" y="10.05" transform="rotate(0)"><tspan id="SvgjsTspan1036" dy="16" x="80"><tspan id="SvgjsTspan1037" style="text-decoration:;">RDT 2.1 - 接收方 FSM</tspan></tspan></text></g></g><g id="SvgjsG1038"><path id="SvgjsPath1039" d="M682.9125061035156 261C 682.9125061035156 365.4 421.9125061035156 365.4 421.9125061035156 261" stroke="#00994d" stroke-width="2" fill="none" marker-end="url(#SvgjsMarker1040)"></path></g><g id="SvgjsG1042" transform="translate(382.11248779296875,301.00000762939453)"><path id="SvgjsPath1043" d="M 0 4Q 0 0 4 0L 412.3000030517578 0Q 416.3000030517578 0 416.3000030517578 4L 416.3000030517578 92Q 416.3000030517578 96 412.3000030517578 96L 4 96Q 0 96 0 92Z" stroke-dasharray="10,6" stroke="#00994d" stroke-width="1" fill-opacity="1" fill="#ffffff"></path><path id="SvgjsPath1044" d="M 0 32L 416.3000030517578 32" stroke-dasharray="10,6" stroke="#00994d" stroke-width="1" fill="none"></path><path id="SvgjsPath1045" d="M 0 0L 416.3000030517578 0L 416.3000030517578 96L 0 96Z" stroke="none" fill="none"></path><g id="SvgjsG1046"><text id="SvgjsText1047" font-family="Arial" text-anchor="start" font-size="13px" width="371" fill="#00994d" font-weight="700" align="middle" anchor="start" family="Arial" size="13px" weight="700" font-style="" y="6.05" transform="rotate(0)"><tspan id="SvgjsTspan1048" dy="16" x="10"><tspan id="SvgjsTspan1049" style="text-decoration:;">rdt_rcv (rcvpkt) &amp;&amp; notcorrupt (rcvpkt) &amp;&amp; has_seq1(rcvpkt)</tspan></tspan></text></g><g id="SvgjsG1050"><text id="SvgjsText1051" font-family="Arial" text-anchor="start" font-size="13px" width="229" fill="#00994d" font-weight="400" align="middle" anchor="start" family="Arial" size="13px" weight="400" font-style="" y="30.05" transform="rotate(0)"><tspan id="SvgjsTspan1052" dy="16" x="10"><tspan id="SvgjsTspan1053" style="text-decoration:;">data = extract (rcvpkt)</tspan></tspan><tspan id="SvgjsTspan1054" dy="16" x="10"><tspan id="SvgjsTspan1055" style="text-decoration:;">deliver_data (data)</tspan></tspan><tspan id="SvgjsTspan1056" dy="16" x="10"><tspan id="SvgjsTspan1057" style="text-decoration:;">sndpkt = make_pkt (ACK, 1, checksum)</tspan></tspan><tspan id="SvgjsTspan1058" dy="16" x="10"><tspan id="SvgjsTspan1059" style="text-decoration:;">udt_send (sndpkt)</tspan></tspan></text></g></g><g id="SvgjsG1060" transform="translate(626.4125061035156,191)"><path id="SvgjsPath1061" d="M 0 18Q 0 0 18 0L 95 0Q 113 0 113 18L 113 52Q 113 70 95 70L 18 70Q 0 70 0 52L 0 18Z" stroke="#00994d" stroke-width="2" fill-opacity="1" fill="#ffffff"></path><g id="SvgjsG1062"><text id="SvgjsText1063" font-family="Arial" text-anchor="middle" font-size="13px" width="78" fill="#00994d" font-weight="400" align="middle" anchor="middle" family="Arial" size="13px" weight="400" font-style="" y="17.05" transform="rotate(0)"><tspan id="SvgjsTspan1064" dy="16" x="56.5"><tspan id="SvgjsTspan1065" style="text-decoration:;">Wait for call 1 </tspan></tspan><tspan id="SvgjsTspan1066" dy="16" x="56.5"><tspan id="SvgjsTspan1067" style="text-decoration:;">from below</tspan></tspan></text></g></g><g id="SvgjsG1068"><path id="SvgjsPath1069" d="M738.4428753387022 202.34729635533387C 828.4124908447266 153 828.4124908447266 299 736.5061830576899 250.5773817382593" stroke="#00994d" stroke-width="2" fill="none" marker-end="url(#SvgjsMarker1070)"></path></g><g id="SvgjsG1072" transform="translate(382.11248779296875,47.00000762939453)"><path id="SvgjsPath1073" d="M 0 4Q 0 0 4 0L 412.3000030517578 0Q 416.3000030517578 0 416.3000030517578 4L 416.3000030517578 90Q 416.3000030517578 94 412.3000030517578 94L 4 94Q 0 94 0 90Z" stroke-dasharray="10,6" stroke="#00994d" stroke-width="1" fill-opacity="1" fill="#ffffff"></path><path id="SvgjsPath1074" d="M 0 30L 416.3000030517578 30" stroke-dasharray="10,6" stroke="#00994d" stroke-width="1" fill="none"></path><path id="SvgjsPath1075" d="M 0 0L 416.3000030517578 0L 416.3000030517578 94L 0 94Z" stroke="none" fill="none"></path><g id="SvgjsG1076"><text id="SvgjsText1077" font-family="Arial" text-anchor="start" font-size="13px" width="371" fill="#00994d" font-weight="700" align="middle" anchor="start" family="Arial" size="13px" weight="700" font-style="" y="5.05" transform="rotate(0)"><tspan id="SvgjsTspan1078" dy="16" x="10"><tspan id="SvgjsTspan1079" style="text-decoration:;">rdt_rcv (rcvpkt) &amp;&amp; notcorrupt (rcvpkt) &amp;&amp; has_seq0(rcvpkt)</tspan></tspan></text></g><g id="SvgjsG1080"><text id="SvgjsText1081" font-family="Arial" text-anchor="start" font-size="13px" width="229" fill="#00994d" font-weight="400" align="middle" anchor="start" family="Arial" size="13px" weight="400" font-style="" y="28.05" transform="rotate(0)"><tspan id="SvgjsTspan1082" dy="16" x="10"><tspan id="SvgjsTspan1083" style="text-decoration:;">data = extract (rcvpkt)</tspan></tspan><tspan id="SvgjsTspan1084" dy="16" x="10"><tspan id="SvgjsTspan1085" style="text-decoration:;">deliver_data (data)</tspan></tspan><tspan id="SvgjsTspan1086" dy="16" x="10"><tspan id="SvgjsTspan1087" style="text-decoration:;">sndpkt = make_pkt (ACK, 0, checksum)</tspan></tspan><tspan id="SvgjsTspan1088" dy="16" x="10"><tspan id="SvgjsTspan1089" style="text-decoration:;">udt_send (sndpkt)</tspan></tspan></text></g></g><g id="SvgjsG1090" transform="translate(795.1124877929688,185.5)"><path id="SvgjsPath1091" d="M 0 4Q 0 0 4 0L 255.89999389648438 0Q 259.8999938964844 0 259.8999938964844 4L 259.8999938964844 65.5Q 259.8999938964844 69.5 255.89999389648438 69.5L 4 69.5Q 0 69.5 0 65.5Z" stroke-dasharray="10,6" stroke="#00994d" stroke-width="1" fill-opacity="1" fill="#ffffff"></path><path id="SvgjsPath1092" d="M 0 32L 259.8999938964844 32" stroke-dasharray="10,6" stroke="#00994d" stroke-width="1" fill="none"></path><path id="SvgjsPath1093" d="M 0 0L 259.8999938964844 0L 259.8999938964844 69.5L 0 69.5Z" stroke="none" fill="none"></path><g id="SvgjsG1094"><text id="SvgjsText1095" font-family="Arial" text-anchor="start" font-size="13px" width="227" fill="#00994d" font-weight="700" align="middle" anchor="start" family="Arial" size="13px" weight="700" font-style="" y="-1.95" transform="rotate(0)"><tspan id="SvgjsTspan1096" dy="16" x="10"><tspan id="SvgjsTspan1097" style="text-decoration:;">rdt_rcv (rcvpkt) &amp;&amp; </tspan></tspan><tspan id="SvgjsTspan1098" dy="16" x="10"><tspan id="SvgjsTspan1099" style="text-decoration:;">(corrupt (rcvpkt) || has_seq0(rcvpkt))</tspan></tspan></text></g><g id="SvgjsG1100"><text id="SvgjsText1101" font-family="Arial" text-anchor="start" font-size="13px" width="229" fill="#00994d" font-weight="400" align="middle" anchor="start" family="Arial" size="13px" weight="400" font-style="" y="32.8" transform="rotate(0)"><tspan id="SvgjsTspan1102" dy="16" x="10"><tspan id="SvgjsTspan1103" style="text-decoration:;font-size: inherit;">sndpkt = make_pkt (ACK, 0, checksum)</tspan></tspan><tspan id="SvgjsTspan1104" dy="16" x="10"><tspan id="SvgjsTspan1105" style="text-decoration:;">udt_send (sndpkt)</tspan></tspan></text></g></g><g id="SvgjsG1106"><path id="SvgjsPath1107" d="M366.73140505056307 248.73214521477792C 285.0124816894531 318 275.0124816894531 142 366.00106578372834 204.26146722824296" stroke="#00994d" stroke-width="2" fill="none" marker-end="url(#SvgjsMarker1108)"></path></g><g id="SvgjsG1110" transform="translate(44.11248779296875,197)"><path id="SvgjsPath1111" d="M 0 4Q 0 0 4 0L 264.8999938964844 0Q 268.8999938964844 0 268.8999938964844 4L 268.8999938964844 71Q 268.8999938964844 75 264.8999938964844 75L 4 75Q 0 75 0 71Z" stroke-dasharray="10,6" stroke="#00994d" stroke-width="1" fill-opacity="1" fill="#ffffff"></path><path id="SvgjsPath1112" d="M 0 32L 268.8999938964844 32" stroke-dasharray="10,6" stroke="#00994d" stroke-width="1" fill="none"></path><path id="SvgjsPath1113" d="M 0 0L 268.8999938964844 0L 268.8999938964844 75L 0 75Z" stroke="none" fill="none"></path><g id="SvgjsG1114"><text id="SvgjsText1115" font-family="Arial" text-anchor="start" font-size="13px" width="227" fill="#00994d" font-weight="700" align="middle" anchor="start" family="Arial" size="13px" weight="700" font-style="" y="-1.95" transform="rotate(0)"><tspan id="SvgjsTspan1116" dy="16" x="10"><tspan id="SvgjsTspan1117" style="text-decoration:;">rdt_rcv (rcvpkt) &amp;&amp; </tspan></tspan><tspan id="SvgjsTspan1118" dy="16" x="10"><tspan id="SvgjsTspan1119" style="text-decoration:;">(corrupt (rcvpkt) || has_seq1(rcvpkt))</tspan></tspan></text></g><g id="SvgjsG1120"><text id="SvgjsText1121" font-family="Arial" text-anchor="start" font-size="13px" width="229" fill="#00994d" font-weight="400" align="middle" anchor="start" family="Arial" size="13px" weight="400" font-style="" y="35.55" transform="rotate(0)"><tspan id="SvgjsTspan1122" dy="16" x="10"><tspan id="SvgjsTspan1123" style="text-decoration:;font-size: inherit;">sndpkt = make_pkt (ACK, 1, checksum)</tspan></tspan><tspan id="SvgjsTspan1124" dy="16" x="10"><tspan id="SvgjsTspan1125" style="text-decoration:;">udt_send (sndpkt)</tspan></tspan></text></g></g></svg>