<svg id="SvgjsSvg2270" width="1246" height="640" xmlns="http://www.w3.org/2000/svg" version="1.1" xmlns:xlink="http://www.w3.org/1999/xlink" xmlns:svgjs="http://svgjs.com/svgjs"><defs id="SvgjsDefs2271"><marker id="SvgjsMarker2302" markerWidth="16" markerHeight="12" refX="16" refY="6" viewBox="0 0 16 12" orient="auto" markerUnits="userSpaceOnUse"><path id="SvgjsPath2303" d="M0,2 L14,6 L0,11 L0,2" fill="#ff3399" stroke="#ff3399" stroke-width="2"></path></marker><marker id="SvgjsMarker2310" markerWidth="16" markerHeight="12" refX="16" refY="6" viewBox="0 0 16 12" orient="auto" markerUnits="userSpaceOnUse"><path id="SvgjsPath2311" d="M0,2 L14,6 L0,11 L0,2" fill="#323232" stroke="#323232" stroke-width="2"></path></marker><marker id="SvgjsMarker2324" markerWidth="16" markerHeight="12" refX="16" refY="6" viewBox="0 0 16 12" orient="auto" markerUnits="userSpaceOnUse"><path id="SvgjsPath2325" d="M0,2 L14,6 L0,11 L0,2" fill="#007fff" stroke="#007fff" stroke-width="2"></path></marker><marker id="SvgjsMarker2328" markerWidth="16" markerHeight="12" refX="16" refY="6" viewBox="0 0 16 12" orient="auto" markerUnits="userSpaceOnUse"><path id="SvgjsPath2329" d="M0,2 L14,6 L0,11 L0,2" fill="#ff8000" stroke="#ff8000" stroke-width="2"></path></marker><marker id="SvgjsMarker2332" markerWidth="16" markerHeight="12" refX="16" refY="6" viewBox="0 0 16 12" orient="auto" markerUnits="userSpaceOnUse"><path id="SvgjsPath2333" d="M0,2 L14,6 L0,11 L0,2" fill="#00994d" stroke="#00994d" stroke-width="2"></path></marker><marker id="SvgjsMarker2336" markerWidth="16" markerHeight="12" refX="16" refY="6" viewBox="0 0 16 12" orient="auto" markerUnits="userSpaceOnUse"><path id="SvgjsPath2337" d="M0,2 L14,6 L0,11 L0,2" fill="#007fff" stroke="#007fff" stroke-width="2"></path></marker><marker id="SvgjsMarker2340" markerWidth="16" markerHeight="12" refX="16" refY="6" viewBox="0 0 16 12" orient="auto" markerUnits="userSpaceOnUse"><path id="SvgjsPath2341" d="M0,2 L14,6 L0,11 L0,2" fill="#ff0000" stroke="#ff0000" stroke-width="2"></path></marker><marker id="SvgjsMarker2344" markerWidth="16" markerHeight="12" refX="16" refY="6" viewBox="0 0 16 12" orient="auto" markerUnits="userSpaceOnUse"><path id="SvgjsPath2345" d="M0,2 L14,6 L0,11 L0,2" fill="#007fff" stroke="#007fff" stroke-width="2"></path></marker><marker id="SvgjsMarker2348" markerWidth="16" markerHeight="12" refX="16" refY="6" viewBox="0 0 16 12" orient="auto" markerUnits="userSpaceOnUse"><path id="SvgjsPath2349" d="M0,2 L14,6 L0,11 L0,2" fill="#00994d" stroke="#00994d" stroke-width="2"></path></marker><marker id="SvgjsMarker2352" markerWidth="16" markerHeight="12" refX="16" refY="6" viewBox="0 0 16 12" orient="auto" markerUnits="userSpaceOnUse"><path id="SvgjsPath2353" d="M0,2 L14,6 L0,11 L0,2" fill="#ff0000" stroke="#ff0000" stroke-width="2"></path></marker><marker id="SvgjsMarker2386" markerWidth="16" markerHeight="12" refX="16" refY="6" viewBox="0 0 16 12" orient="auto" markerUnits="userSpaceOnUse"><path id="SvgjsPath2387" d="M0,2 L14,6 L0,11 L0,2" fill="#00994d" stroke="#00994d" stroke-width="2"></path></marker><marker id="SvgjsMarker2406" markerWidth="16" markerHeight="12" refX="16" refY="6" viewBox="0 0 16 12" orient="auto" markerUnits="userSpaceOnUse"><path id="SvgjsPath2407" d="M0,2 L14,6 L0,11 L0,2" fill="#ff8000" stroke="#ff8000" stroke-width="2"></path></marker><marker id="SvgjsMarker2410" markerWidth="16" markerHeight="12" refX="16" refY="6" viewBox="0 0 16 12" orient="auto" markerUnits="userSpaceOnUse"><path id="SvgjsPath2411" d="M0,2 L14,6 L0,11 L0,2" fill="#ff8000" stroke="#ff8000" stroke-width="2"></path></marker></defs><g id="SvgjsG2272" transform="translate(382,153)"><path id="SvgjsPath2273" d="M 0 18Q 0 0 18 0L 82 0Q 100 0 100 18L 100 52Q 100 70 82 70L 18 70Q 0 70 0 52L 0 18Z" stroke="#323232" stroke-width="2" fill-opacity="1" fill="#ffffff"></path><g id="SvgjsG2274"><text id="SvgjsText2275" font-family="Arial" text-anchor="middle" font-size="13px" width="64" fill="#323232" font-weight="700" align="middle" anchor="middle" family="Arial" size="13px" weight="700" font-style="" y="17.05" transform="rotate(0)"><tspan id="SvgjsTspan2276" dy="16" x="50"><tspan id="SvgjsTspan2277" style="text-decoration:;">慢启动</tspan></tspan><tspan id="SvgjsTspan2278" dy="16" x="50"><tspan id="SvgjsTspan2279" style="text-decoration:;">Slow Start</tspan></tspan></text></g></g><g id="SvgjsG2280" transform="translate(907,153)"><path id="SvgjsPath2281" d="M 0 18Q 0 0 18 0L 82 0Q 100 0 100 18L 100 52Q 100 70 82 70L 18 70Q 0 70 0 52L 0 18Z" stroke="#323232" stroke-width="2" fill-opacity="1" fill="#ffffff"></path><g id="SvgjsG2282"><text id="SvgjsText2283" font-family="Arial" text-anchor="middle" font-size="13px" width="72" fill="#323232" font-weight="700" align="middle" anchor="middle" family="Arial" size="13px" weight="700" font-style="" y="9.05" transform="rotate(0)"><tspan id="SvgjsTspan2284" dy="16" x="50"><tspan id="SvgjsTspan2285" style="text-decoration:;">拥塞避免</tspan></tspan><tspan id="SvgjsTspan2286" dy="16" x="50"><tspan id="SvgjsTspan2287" style="text-decoration:;">Congestion </tspan></tspan><tspan id="SvgjsTspan2288" dy="16" x="50"><tspan id="SvgjsTspan2289" style="text-decoration:;">Avoidance</tspan></tspan></text></g></g><g id="SvgjsG2290" transform="translate(656,435)"><path id="SvgjsPath2291" d="M 0 18Q 0 0 18 0L 82 0Q 100 0 100 18L 100 52Q 100 70 82 70L 18 70Q 0 70 0 52L 0 18Z" stroke="#323232" stroke-width="2" fill-opacity="1" fill="#ffffff"></path><g id="SvgjsG2292"><text id="SvgjsText2293" font-family="Arial" text-anchor="middle" font-size="13px" width="59" fill="#323232" font-weight="700" align="middle" anchor="middle" family="Arial" size="13px" weight="700" font-style="" y="9.05" transform="rotate(0)"><tspan id="SvgjsTspan2294" dy="16" x="50"><tspan id="SvgjsTspan2295" style="text-decoration:;">快速恢复</tspan></tspan><tspan id="SvgjsTspan2296" dy="16" x="50"><tspan id="SvgjsTspan2297" style="text-decoration:;">Fast </tspan></tspan><tspan id="SvgjsTspan2298" dy="16" x="50"><tspan id="SvgjsTspan2299" style="text-decoration:;">Recovery</tspan></tspan></text></g></g><g id="SvgjsG2300"><path id="SvgjsPath2301" d="M482 188C 565 100 827 110 907 188" stroke="#ff3399" stroke-width="2" fill="none" marker-end="url(#SvgjsMarker2302)"></path></g><g id="SvgjsG2304" transform="translate(80,168)"><path id="SvgjsPath2305" d="M 0 20C 0 -6.666666666666667 40 -6.666666666666667 40 20C 40 46.666666666666664 0 46.666666666666664 0 20Z" stroke="none" fill-opacity="1" fill="#323232"></path><g id="SvgjsG2306"><text id="SvgjsText2307" font-family="Arial" text-anchor="middle" font-size="13px" width="0" fill="#323232" font-weight="400" align="middle" anchor="middle" family="Arial" size="13px" weight="400" font-style="" y="45.05" transform="rotate(0)"></text></g></g><g id="SvgjsG2308"><path id="SvgjsPath2309" d="M120 188L382 188" stroke="#323232" stroke-width="2" fill="none" marker-end="url(#SvgjsMarker2310)"></path></g><g id="SvgjsG2312" transform="translate(637,93)"><path id="SvgjsPath2313" d="M 0 4Q 0 0 4 0L 134 0Q 138 0 138 4L 138 46Q 138 50 134 50L 4 50Q 0 50 0 46Z" stroke-dasharray="10,6" stroke="#ff0080" stroke-width="1" fill-opacity="1" fill="#ffcce6"></path><path id="SvgjsPath2314" d="M 0 30L 138 30" stroke-dasharray="10,6" stroke="#ff0080" stroke-width="1" fill="none"></path><path id="SvgjsPath2315" d="M 0 0L 138 0L 138 50L 0 50Z" stroke="none" fill="none"></path><g id="SvgjsG2316"><text id="SvgjsText2317" font-family="Arial" text-anchor="start" font-size="13px" width="110" fill="#323232" font-weight="700" align="middle" anchor="start" family="Arial" size="13px" weight="700" font-style="" y="5.05" transform="rotate(0)"><tspan id="SvgjsTspan2318" dy="16" x="10"><tspan id="SvgjsTspan2319" style="text-decoration:;">cwnd &gt;= ssthresh</tspan></tspan></text></g><g id="SvgjsG2320"><text id="SvgjsText2321" font-family="Arial" text-anchor="start" font-size="13px" width="0" fill="#323232" font-weight="400" align="middle" anchor="start" family="Arial" size="13px" weight="400" font-style="" y="30.05" transform="rotate(0)"></text></g></g><g id="SvgjsG2322"><path id="SvgjsPath2323" d="M907 188L482 188" stroke="#007fff" stroke-width="2" fill="none" marker-end="url(#SvgjsMarker2324)"></path></g><g id="SvgjsG2326"><path id="SvgjsPath2327" d="M432 153C 429 66 540 103 479.18092213764226 161.026060429977" stroke="#ff8000" stroke-width="2" fill="none" marker-end="url(#SvgjsMarker2328)"></path></g><g id="SvgjsG2330"><path id="SvgjsPath2331" d="M385 156C 317 86 438 73 432 153" stroke="#00994d" stroke-width="2" fill="none" marker-end="url(#SvgjsMarker2332)"></path></g><g id="SvgjsG2334"><path id="SvgjsPath2335" d="M432 223C 435 316 324 264 386.86788218175525 217.90423977855505" stroke="#007fff" stroke-width="2" fill="none" marker-end="url(#SvgjsMarker2336)"></path></g><g id="SvgjsG2338"><path id="SvgjsPath2339" d="M432 223C 432 356.37765929869965 522.6223407013003 470 656 470" stroke="#ff0000" stroke-width="2" fill="none" marker-end="url(#SvgjsMarker2340)"></path></g><g id="SvgjsG2342"><path id="SvgjsPath2343" d="M656 470L432 223" stroke="#007fff" stroke-width="2" fill="none" marker-end="url(#SvgjsMarker2344)"></path></g><g id="SvgjsG2346"><path id="SvgjsPath2347" d="M756 470L957 223" stroke="#00994d" stroke-width="2" fill="none" marker-end="url(#SvgjsMarker2348)"></path></g><g id="SvgjsG2350"><path id="SvgjsPath2351" d="M957 223C 957 350.37974721281245 883.3797472128124 470 756 470" stroke="#ff0000" stroke-width="2" fill="none" marker-end="url(#SvgjsMarker2352)"></path></g><g id="SvgjsG2354" transform="translate(202,47.25)"><path id="SvgjsPath2355" d="M 0 4Q 0 0 4 0L 182 0Q 186 0 186 4L 186 80.5Q 186 84.5 182 84.5L 4 84.5Q 0 84.5 0 80.5Z" stroke-dasharray="10,6" stroke="#00994d" stroke-width="1" fill-opacity="1" fill="#ccffe6"></path><path id="SvgjsPath2356" d="M 0 30L 186 30" stroke-dasharray="10,6" stroke="#00994d" stroke-width="1" fill="none"></path><path id="SvgjsPath2357" d="M 0 0L 186 0L 186 84.5L 0 84.5Z" stroke="none" fill="none"></path><g id="SvgjsG2358"><text id="SvgjsText2359" font-family="Arial" text-anchor="start" font-size="13px" width="57" fill="#323232" font-weight="700" align="middle" anchor="start" family="Arial" size="13px" weight="700" font-style="" y="5.05" transform="rotate(0)"><tspan id="SvgjsTspan2360" dy="16" x="10"><tspan id="SvgjsTspan2361" style="text-decoration:;">new ACK</tspan></tspan></text></g><g id="SvgjsG2362"><text id="SvgjsText2363" font-family="Arial" text-anchor="start" font-size="13px" width="127" fill="#323232" font-weight="400" align="middle" anchor="start" family="Arial" size="13px" weight="400" font-style="" y="31.3" transform="rotate(0)"><tspan id="SvgjsTspan2364" dy="16" x="10"><tspan id="SvgjsTspan2365" style="text-decoration:;">cwnd=cwnd + 1 MSS</tspan></tspan><tspan id="SvgjsTspan2366" dy="16" x="10"><tspan id="SvgjsTspan2367" style="text-decoration:;">dupACKcount=0</tspan></tspan><tspan id="SvgjsTspan2368" dy="16" x="10"><tspan id="SvgjsTspan2369" style="text-decoration:;">transmit new segment</tspan></tspan></text></g></g><g id="SvgjsG2370" transform="translate(738,277.5)"><path id="SvgjsPath2371" d="M 0 4Q 0 0 4 0L 140 0Q 144 0 144 4L 144 58Q 144 62 140 62L 4 62Q 0 62 0 58Z" stroke-dasharray="10,6" stroke="#00994d" stroke-width="1" fill-opacity="1" fill="#ccffe6"></path><path id="SvgjsPath2372" d="M 0 30L 144 30" stroke-dasharray="10,6" stroke="#00994d" stroke-width="1" fill="none"></path><path id="SvgjsPath2373" d="M 0 0L 144 0L 144 62L 0 62Z" stroke="none" fill="none"></path><g id="SvgjsG2374"><text id="SvgjsText2375" font-family="Arial" text-anchor="start" font-size="13px" width="57" fill="#323232" font-weight="700" align="middle" anchor="start" family="Arial" size="13px" weight="700" font-style="" y="5.05" transform="rotate(0)"><tspan id="SvgjsTspan2376" dy="16" x="10"><tspan id="SvgjsTspan2377" style="text-decoration:;">new ACK</tspan></tspan></text></g><g id="SvgjsG2378"><text id="SvgjsText2379" font-family="Arial" text-anchor="start" font-size="13px" width="95" fill="#323232" font-weight="400" align="middle" anchor="start" family="Arial" size="13px" weight="400" font-style="" y="28.05" transform="rotate(0)"><tspan id="SvgjsTspan2380" dy="16" x="10"><tspan id="SvgjsTspan2381" style="text-decoration:;">cwnd=ssthresh</tspan></tspan><tspan id="SvgjsTspan2382" dy="16" x="10"><tspan id="SvgjsTspan2383" style="text-decoration:;">dupACKcount=0</tspan></tspan></text></g></g><g id="SvgjsG2384"><path id="SvgjsPath2385" d="M957 153C 923 62 1050 103 1001.4037333412862 156.85672565811925" stroke="#00994d" stroke-width="2" fill="none" marker-end="url(#SvgjsMarker2386)"></path></g><g id="SvgjsG2388" transform="translate(984,47.25)"><path id="SvgjsPath2389" d="M 0 4Q 0 0 4 0L 233 0Q 237 0 237 4L 237 74Q 237 78 233 78L 4 78Q 0 78 0 74Z" stroke-dasharray="10,6" stroke="#00994d" stroke-width="1" fill-opacity="1" fill="#ccffe6"></path><path id="SvgjsPath2390" d="M 0 30L 237 30" stroke-dasharray="10,6" stroke="#00994d" stroke-width="1" fill="none"></path><path id="SvgjsPath2391" d="M 0 0L 237 0L 237 78L 0 78Z" stroke="none" fill="none"></path><g id="SvgjsG2392"><text id="SvgjsText2393" font-family="Arial" text-anchor="start" font-size="13px" width="57" fill="#323232" font-weight="700" align="middle" anchor="start" family="Arial" size="13px" weight="700" font-style="" y="5.05" transform="rotate(0)"><tspan id="SvgjsTspan2394" dy="16" x="10"><tspan id="SvgjsTspan2395" style="text-decoration:;">new ACK</tspan></tspan></text></g><g id="SvgjsG2396"><text id="SvgjsText2397" font-family="Arial" text-anchor="start" font-size="13px" width="194" fill="#323232" font-weight="400" align="middle" anchor="start" family="Arial" size="13px" weight="400" font-style="" y="28.05" transform="rotate(0)"><tspan id="SvgjsTspan2398" dy="16" x="10"><tspan id="SvgjsTspan2399" style="text-decoration:;">cwnd=cwnd + MSS * (MSS/cwnd)</tspan></tspan><tspan id="SvgjsTspan2400" dy="16" x="10"><tspan id="SvgjsTspan2401" style="text-decoration:;">dupACKcount=0</tspan></tspan><tspan id="SvgjsTspan2402" dy="16" x="10"><tspan id="SvgjsTspan2403" style="text-decoration:;">transmit new segment</tspan></tspan></text></g></g><g id="SvgjsG2404"><path id="SvgjsPath2405" d="M1007 188C 1105 144 1084 289 1002.8786796564405 217.87867965644034" stroke="#ff8000" stroke-width="2" fill="none" marker-end="url(#SvgjsMarker2406)"></path></g><g id="SvgjsG2408"><path id="SvgjsPath2409" d="M722 505C 749 558 658 557 683 504" stroke="#ff8000" stroke-width="2" fill="none" marker-end="url(#SvgjsMarker2410)"></path></g><g id="SvgjsG2412" transform="translate(324.5,402)"><path id="SvgjsPath2413" d="M 0 4Q 0 0 4 0L 211 0Q 215 0 215 4L 215 106Q 215 110 211 110L 4 110Q 0 110 0 106Z" stroke-dasharray="10,6" stroke="#ff0000" stroke-width="1" fill-opacity="1" fill="#ffcccc"></path><path id="SvgjsPath2414" d="M 0 30L 215 30" stroke-dasharray="10,6" stroke="#ff0000" stroke-width="1" fill="none"></path><path id="SvgjsPath2415" d="M 0 0L 215 0L 215 110L 0 110Z" stroke="none" fill="none"></path><g id="SvgjsG2416"><text id="SvgjsText2417" font-family="Arial" text-anchor="start" font-size="13px" width="102" fill="#323232" font-weight="700" align="middle" anchor="start" family="Arial" size="13px" weight="700" font-style="" y="5.05" transform="rotate(0)"><tspan id="SvgjsTspan2418" dy="16" x="10"><tspan id="SvgjsTspan2419" style="text-decoration:;">dupACKcount=3</tspan></tspan></text></g><g id="SvgjsG2420"><text id="SvgjsText2421" font-family="Arial" text-anchor="start" font-size="13px" width="165" fill="#323232" font-weight="400" align="middle" anchor="start" family="Arial" size="13px" weight="400" font-style="" y="36.05" transform="rotate(0)"><tspan id="SvgjsTspan2422" dy="16" x="10"><tspan id="SvgjsTspan2423" style="text-decoration:;">ssthresh=cwnd/2</tspan></tspan><tspan id="SvgjsTspan2424" dy="16" x="10"><tspan id="SvgjsTspan2425" style="text-decoration:;">cwnd=initial MSS</tspan></tspan><tspan id="SvgjsTspan2426" dy="16" x="10"><tspan id="SvgjsTspan2427" style="text-decoration:;">dupACKcount=0</tspan></tspan><tspan id="SvgjsTspan2428" dy="16" x="10"><tspan id="SvgjsTspan2429" style="text-decoration:;">restransmit missing segment</tspan></tspan></text></g></g><g id="SvgjsG2430" transform="translate(856.5,402)"><path id="SvgjsPath2431" d="M 0 4Q 0 0 4 0L 197 0Q 201 0 201 4L 201 85.5Q 201 89.5 197 89.5L 4 89.5Q 0 89.5 0 85.5Z" stroke-dasharray="10,6" stroke="#ff0000" stroke-width="1" fill-opacity="1" fill="#ffcccc"></path><path id="SvgjsPath2432" d="M 0 30L 201 30" stroke-dasharray="10,6" stroke="#ff0000" stroke-width="1" fill="none"></path><path id="SvgjsPath2433" d="M 0 0L 201 0L 201 89.5L 0 89.5Z" stroke="none" fill="none"></path><g id="SvgjsG2434"><text id="SvgjsText2435" font-family="Arial" text-anchor="start" font-size="13px" width="102" fill="#323232" font-weight="700" align="middle" anchor="start" family="Arial" size="13px" weight="700" font-style="" y="5.05" transform="rotate(0)"><tspan id="SvgjsTspan2436" dy="16" x="10"><tspan id="SvgjsTspan2437" style="text-decoration:;">dupACKcount=3</tspan></tspan></text></g><g id="SvgjsG2438"><text id="SvgjsText2439" font-family="Arial" text-anchor="start" font-size="13px" width="165" fill="#323232" font-weight="400" align="middle" anchor="start" family="Arial" size="13px" weight="400" font-style="" y="33.8" transform="rotate(0)"><tspan id="SvgjsTspan2440" dy="16" x="10"><tspan id="SvgjsTspan2441" style="text-decoration:;">ssthresh=cwnd/2</tspan></tspan><tspan id="SvgjsTspan2442" dy="16" x="10"><tspan id="SvgjsTspan2443" style="text-decoration:;">cwnd=ssthresh</tspan></tspan><tspan id="SvgjsTspan2444" dy="16" x="10"><tspan id="SvgjsTspan2445" style="text-decoration:;">restransmit missing segment</tspan></tspan></text></g></g><g id="SvgjsG2446" transform="translate(202,260)"><path id="SvgjsPath2447" d="M 0 4Q 0 0 4 0L 194 0Q 198 0 198 4L 198 95Q 198 99 194 99L 4 99Q 0 99 0 95Z" stroke-dasharray="10,6" stroke="#0066cc" stroke-width="1" fill-opacity="1" fill="#cce5ff"></path><path id="SvgjsPath2448" d="M 0 30L 198 30" stroke-dasharray="10,6" stroke="#0066cc" stroke-width="1" fill="none"></path><path id="SvgjsPath2449" d="M 0 0L 198 0L 198 99L 0 99Z" stroke="none" fill="none"></path><g id="SvgjsG2450"><text id="SvgjsText2451" font-family="Arial" text-anchor="start" font-size="13px" width="47" fill="#323232" font-weight="700" align="middle" anchor="start" family="Arial" size="13px" weight="700" font-style="" y="5.05" transform="rotate(0)"><tspan id="SvgjsTspan2452" dy="16" x="10"><tspan id="SvgjsTspan2453" style="text-decoration:;">timeout</tspan></tspan></text></g><g id="SvgjsG2454"><text id="SvgjsText2455" font-family="Arial" text-anchor="start" font-size="13px" width="165" fill="#323232" font-weight="400" align="middle" anchor="start" family="Arial" size="13px" weight="400" font-style="" y="30.55" transform="rotate(0)"><tspan id="SvgjsTspan2456" dy="16" x="10"><tspan id="SvgjsTspan2457" style="text-decoration:;">ssthresh=cwnd/2</tspan></tspan><tspan id="SvgjsTspan2458" dy="16" x="10"><tspan id="SvgjsTspan2459" style="text-decoration:;">cwnd=initial MSS</tspan></tspan><tspan id="SvgjsTspan2460" dy="16" x="10"><tspan id="SvgjsTspan2461" style="text-decoration:;">dupACKcount=0</tspan></tspan><tspan id="SvgjsTspan2462" dy="16" x="10"><tspan id="SvgjsTspan2463" style="text-decoration:;">restransmit missing segment</tspan></tspan></text></g></g><g id="SvgjsG2464" transform="translate(469,47.25)"><path id="SvgjsPath2465" d="M 0 4Q 0 0 4 0L 134 0Q 138 0 138 4L 138 56Q 138 60 134 60L 4 60Q 0 60 0 56Z" stroke-dasharray="10,6" stroke="#ff8000" stroke-width="1" fill-opacity="1" fill="#ffe6cc"></path><path id="SvgjsPath2466" d="M 0 30L 138 30" stroke-dasharray="10,6" stroke="#ff8000" stroke-width="1" fill="none"></path><path id="SvgjsPath2467" d="M 0 0L 138 0L 138 60L 0 60Z" stroke="none" fill="none"></path><g id="SvgjsG2468"><text id="SvgjsText2469" font-family="Arial" text-anchor="start" font-size="13px" width="88" fill="#323232" font-weight="700" align="middle" anchor="start" family="Arial" size="13px" weight="700" font-style="" y="5.05" transform="rotate(0)"><tspan id="SvgjsTspan2470" dy="16" x="10"><tspan id="SvgjsTspan2471" style="text-decoration:;">duplicate ACK</tspan></tspan></text></g><g id="SvgjsG2472"><text id="SvgjsText2473" font-family="Arial" text-anchor="start" font-size="13px" width="95" fill="#323232" font-weight="400" align="middle" anchor="start" family="Arial" size="13px" weight="400" font-style="" y="35.05" transform="rotate(0)"><tspan id="SvgjsTspan2474" dy="16" x="10"><tspan id="SvgjsTspan2475" style="text-decoration:;">dupACKcount++</tspan></tspan></text></g></g><g id="SvgjsG2476" transform="translate(1067,196)"><path id="SvgjsPath2477" d="M 0 4Q 0 0 4 0L 135 0Q 139 0 139 4L 139 56Q 139 60 135 60L 4 60Q 0 60 0 56Z" stroke-dasharray="10,6" stroke="#ff8000" stroke-width="1" fill-opacity="1" fill="#ffe6cc"></path><path id="SvgjsPath2478" d="M 0 30L 139 30" stroke-dasharray="10,6" stroke="#ff8000" stroke-width="1" fill="none"></path><path id="SvgjsPath2479" d="M 0 0L 139 0L 139 60L 0 60Z" stroke="none" fill="none"></path><g id="SvgjsG2480"><text id="SvgjsText2481" font-family="Arial" text-anchor="start" font-size="13px" width="88" fill="#323232" font-weight="700" align="middle" anchor="start" family="Arial" size="13px" weight="700" font-style="" y="5.05" transform="rotate(0)"><tspan id="SvgjsTspan2482" dy="16" x="10"><tspan id="SvgjsTspan2483" style="text-decoration:;">duplicate ACK</tspan></tspan></text></g><g id="SvgjsG2484"><text id="SvgjsText2485" font-family="Arial" text-anchor="start" font-size="13px" width="95" fill="#323232" font-weight="400" align="middle" anchor="start" family="Arial" size="13px" weight="400" font-style="" y="35.05" transform="rotate(0)"><tspan id="SvgjsTspan2486" dy="16" x="10"><tspan id="SvgjsTspan2487" style="text-decoration:;">dupACKcount++</tspan></tspan></text></g></g><g id="SvgjsG2488" transform="translate(630,541)"><path id="SvgjsPath2489" d="M 0 4Q 0 0 4 0L 148 0Q 152 0 152 4L 152 70Q 152 74 148 74L 4 74Q 0 74 0 70Z" stroke-dasharray="10,6" stroke="#ff8000" stroke-width="1" fill-opacity="1" fill="#ffe6cc"></path><path id="SvgjsPath2490" d="M 0 30L 152 30" stroke-dasharray="10,6" stroke="#ff8000" stroke-width="1" fill="none"></path><path id="SvgjsPath2491" d="M 0 0L 152 0L 152 74L 0 74Z" stroke="none" fill="none"></path><g id="SvgjsG2492"><text id="SvgjsText2493" font-family="Arial" text-anchor="start" font-size="13px" width="88" fill="#323232" font-weight="700" align="middle" anchor="start" family="Arial" size="13px" weight="700" font-style="" y="5.05" transform="rotate(0)"><tspan id="SvgjsTspan2494" dy="16" x="10"><tspan id="SvgjsTspan2495" style="text-decoration:;">duplicate ACK</tspan></tspan></text></g><g id="SvgjsG2496"><text id="SvgjsText2497" font-family="Arial" text-anchor="start" font-size="13px" width="127" fill="#323232" font-weight="400" align="middle" anchor="start" family="Arial" size="13px" weight="400" font-style="" y="34.05" transform="rotate(0)"><tspan id="SvgjsTspan2498" dy="16" x="10"><tspan id="SvgjsTspan2499" style="text-decoration:;">cwnd=cwnd + 1 MSS</tspan></tspan><tspan id="SvgjsTspan2500" dy="16" x="10"><tspan id="SvgjsTspan2501" style="text-decoration:;">transmit new segment</tspan></tspan></text></g></g><g id="SvgjsG2502" transform="translate(489,277.5)"><path id="SvgjsPath2503" d="M 0 4Q 0 0 4 0L 194 0Q 198 0 198 4L 198 95Q 198 99 194 99L 4 99Q 0 99 0 95Z" stroke-dasharray="10,6" stroke="#0066cc" stroke-width="1" fill-opacity="1" fill="#cce5ff"></path><path id="SvgjsPath2504" d="M 0 30L 198 30" stroke-dasharray="10,6" stroke="#0066cc" stroke-width="1" fill="none"></path><path id="SvgjsPath2505" d="M 0 0L 198 0L 198 99L 0 99Z" stroke="none" fill="none"></path><g id="SvgjsG2506"><text id="SvgjsText2507" font-family="Arial" text-anchor="start" font-size="13px" width="47" fill="#323232" font-weight="700" align="middle" anchor="start" family="Arial" size="13px" weight="700" font-style="" y="5.05" transform="rotate(0)"><tspan id="SvgjsTspan2508" dy="16" x="10"><tspan id="SvgjsTspan2509" style="text-decoration:;">timeout</tspan></tspan></text></g><g id="SvgjsG2510"><text id="SvgjsText2511" font-family="Arial" text-anchor="start" font-size="13px" width="165" fill="#323232" font-weight="400" align="middle" anchor="start" family="Arial" size="13px" weight="400" font-style="" y="30.55" transform="rotate(0)"><tspan id="SvgjsTspan2512" dy="16" x="10"><tspan id="SvgjsTspan2513" style="text-decoration:;">ssthresh=cwnd/2</tspan></tspan><tspan id="SvgjsTspan2514" dy="16" x="10"><tspan id="SvgjsTspan2515" style="text-decoration:;">cwnd=initial MSS</tspan></tspan><tspan id="SvgjsTspan2516" dy="16" x="10"><tspan id="SvgjsTspan2517" style="text-decoration:;">dupACKcount=0</tspan></tspan><tspan id="SvgjsTspan2518" dy="16" x="10"><tspan id="SvgjsTspan2519" style="text-decoration:;">restransmit missing segment</tspan></tspan></text></g></g><g id="SvgjsG2520" transform="translate(607,161)"><path id="SvgjsPath2521" d="M 0 4Q 0 0 4 0L 194 0Q 198 0 198 4L 198 95Q 198 99 194 99L 4 99Q 0 99 0 95Z" stroke-dasharray="10,6" stroke="#0066cc" stroke-width="1" fill-opacity="1" fill="#cce5ff"></path><path id="SvgjsPath2522" d="M 0 30L 198 30" stroke-dasharray="10,6" stroke="#0066cc" stroke-width="1" fill="none"></path><path id="SvgjsPath2523" d="M 0 0L 198 0L 198 99L 0 99Z" stroke="none" fill="none"></path><g id="SvgjsG2524"><text id="SvgjsText2525" font-family="Arial" text-anchor="start" font-size="13px" width="47" fill="#323232" font-weight="700" align="middle" anchor="start" family="Arial" size="13px" weight="700" font-style="" y="5.05" transform="rotate(0)"><tspan id="SvgjsTspan2526" dy="16" x="10"><tspan id="SvgjsTspan2527" style="text-decoration:;">timeout</tspan></tspan></text></g><g id="SvgjsG2528"><text id="SvgjsText2529" font-family="Arial" text-anchor="start" font-size="13px" width="165" fill="#323232" font-weight="400" align="middle" anchor="start" family="Arial" size="13px" weight="400" font-style="" y="30.55" transform="rotate(0)"><tspan id="SvgjsTspan2530" dy="16" x="10"><tspan id="SvgjsTspan2531" style="text-decoration:;">ssthresh=cwnd/2</tspan></tspan><tspan id="SvgjsTspan2532" dy="16" x="10"><tspan id="SvgjsTspan2533" style="text-decoration:;">cwnd=initial MSS</tspan></tspan><tspan id="SvgjsTspan2534" dy="16" x="10"><tspan id="SvgjsTspan2535" style="text-decoration:;">dupACKcount=0</tspan></tspan><tspan id="SvgjsTspan2536" dy="16" x="10"><tspan id="SvgjsTspan2537" style="text-decoration:;">restransmit missing segment</tspan></tspan></text></g></g><g id="SvgjsG2538" transform="translate(25,220)"><path id="SvgjsPath2539" d="M 0 4Q 0 0 4 0L 146 0Q 150 0 150 4L 150 84Q 150 88 146 88L 4 88Q 0 88 0 84Z" stroke-dasharray="10,6" stroke="#000000" stroke-width="1" fill-opacity="1" fill="#ffffff"></path><path id="SvgjsPath2540" d="M 0 30L 150 30" stroke-dasharray="10,6" stroke="#000000" stroke-width="1" fill="none"></path><path id="SvgjsPath2541" d="M 0 0L 150 0L 150 88L 0 88Z" stroke="none" fill="none"></path><g id="SvgjsG2542"><text id="SvgjsText2543" font-family="Arial" text-anchor="start" font-size="13px" width="28" fill="#323232" font-weight="700" align="middle" anchor="start" family="Arial" size="13px" weight="700" font-style="" y="5.05" transform="rotate(0)"><tspan id="SvgjsTspan2544" dy="16" x="10"><tspan id="SvgjsTspan2545" style="text-decoration:;">start</tspan></tspan></text></g><g id="SvgjsG2546"><text id="SvgjsText2547" font-family="Arial" text-anchor="start" font-size="13px" width="119" fill="#323232" font-weight="400" align="middle" anchor="start" family="Arial" size="13px" weight="400" font-style="" y="33.05" transform="rotate(0)"><tspan id="SvgjsTspan2548" dy="16" x="10"><tspan id="SvgjsTspan2549" style="text-decoration:;">cwnd=initial MSS</tspan></tspan><tspan id="SvgjsTspan2550" dy="16" x="10"><tspan id="SvgjsTspan2551" style="text-decoration:;">ssthresh=intial Value</tspan></tspan><tspan id="SvgjsTspan2552" dy="16" x="10"><tspan id="SvgjsTspan2553" style="text-decoration:;">dupACKcount=0</tspan></tspan></text></g></g><g id="SvgjsG2554" transform="translate(293,25)"><path id="SvgjsPath2555" d="M 0 0L 68 0L 84 16L 84 34L 0 34L 0 0Z" stroke="none" fill-opacity="1" fill="#ffffcc"></path><path id="SvgjsPath2556" d="M 68 0L 68 16L 84 16Z" stroke="none" fill-opacity="1" fill="#cdcdcd"></path><path id="SvgjsPath2557" d="M 0 0L 68 0L 84 16L 84 34L 0 34L 0 0Z" stroke="none" fill="none"></path><g id="SvgjsG2558"><text id="SvgjsText2559" font-family="Arial" text-anchor="middle" font-size="13px" width="52" fill="#323232" font-weight="400" align="middle" anchor="middle" family="Arial" size="13px" weight="400" font-style="" y="7.05" transform="rotate(0)"><tspan id="SvgjsTspan2560" dy="16" x="42"><tspan id="SvgjsTspan2561" style="text-decoration:;">指数增长</tspan></tspan></text></g></g><g id="SvgjsG2562" transform="translate(1094.5,32)"><path id="SvgjsPath2563" d="M 0 0L 68 0L 84 16L 84 34L 0 34L 0 0Z" stroke="none" fill-opacity="1" fill="#ffffcc"></path><path id="SvgjsPath2564" d="M 68 0L 68 16L 84 16Z" stroke="none" fill-opacity="1" fill="#cdcdcd"></path><path id="SvgjsPath2565" d="M 0 0L 68 0L 84 16L 84 34L 0 34L 0 0Z" stroke="none" fill="none"></path><g id="SvgjsG2566"><text id="SvgjsText2567" font-family="Arial" text-anchor="middle" font-size="13px" width="52" fill="#323232" font-weight="400" align="middle" anchor="middle" family="Arial" size="13px" weight="400" font-style="" y="7.05" transform="rotate(0)"><tspan id="SvgjsTspan2568" dy="16" x="42"><tspan id="SvgjsTspan2569" style="text-decoration:;">线性增长</tspan></tspan></text></g></g><g id="SvgjsG2570" transform="translate(341.5,294.5)"><path id="SvgjsPath2571" d="M 0 0L 68 0L 84 16L 84 34L 0 34L 0 0Z" stroke="none" fill-opacity="1" fill="#ffffcc"></path><path id="SvgjsPath2572" d="M 68 0L 68 16L 84 16Z" stroke="none" fill-opacity="1" fill="#cdcdcd"></path><path id="SvgjsPath2573" d="M 0 0L 68 0L 84 16L 84 34L 0 34L 0 0Z" stroke="none" fill="none"></path><g id="SvgjsG2574"><text id="SvgjsText2575" font-family="Arial" text-anchor="middle" font-size="13px" width="52" fill="#323232" font-weight="400" align="middle" anchor="middle" family="Arial" size="13px" weight="400" font-style="" y="7.05" transform="rotate(0)"><tspan id="SvgjsTspan2576" dy="16" x="42"><tspan id="SvgjsTspan2577" style="text-decoration:;">乘法倍减</tspan></tspan></text></g></g><g id="SvgjsG2578" transform="translate(479.5,447)"><path id="SvgjsPath2579" d="M 0 0L 68 0L 84 16L 84 34L 0 34L 0 0Z" stroke="none" fill-opacity="1" fill="#ffffcc"></path><path id="SvgjsPath2580" d="M 68 0L 68 16L 84 16Z" stroke="none" fill-opacity="1" fill="#cdcdcd"></path><path id="SvgjsPath2581" d="M 0 0L 68 0L 84 16L 84 34L 0 34L 0 0Z" stroke="none" fill="none"></path><g id="SvgjsG2582"><text id="SvgjsText2583" font-family="Arial" text-anchor="middle" font-size="13px" width="52" fill="#323232" font-weight="400" align="middle" anchor="middle" family="Arial" size="13px" weight="400" font-style="" y="7.05" transform="rotate(0)"><tspan id="SvgjsTspan2584" dy="16" x="42"><tspan id="SvgjsTspan2585" style="text-decoration:;">乘法倍减</tspan></tspan></text></g></g></svg>